<?xml version="1.0" encoding="UTF-8" standalone="no"?>
<!-- Created with Inkscape (http://www.inkscape.org/) -->
<svg
   xmlns:dc="http://purl.org/dc/elements/1.1/"
   xmlns:cc="http://creativecommons.org/ns#"
   xmlns:rdf="http://www.w3.org/1999/02/22-rdf-syntax-ns#"
   xmlns:svg="http://www.w3.org/2000/svg"
   xmlns="http://www.w3.org/2000/svg"
   xmlns:sodipodi="http://sodipodi.sourceforge.net/DTD/sodipodi-0.dtd"
   xmlns:inkscape="http://www.inkscape.org/namespaces/inkscape"
   width="744.09448819"
   height="1052.3622047"
   id="svg2"
   sodipodi:version="0.32"
   inkscape:version="0.46"
   sodipodi:docname="logo4.svg"
   inkscape:output_extension="org.inkscape.output.svg.inkscape">
  <defs
     id="defs4">
    <inkscape:perspective
       sodipodi:type="inkscape:persp3d"
       inkscape:vp_x="-17.665788 : 348.21585 : 1"
       inkscape:vp_y="6.0815314e-14 : 2775.401 : 0"
       inkscape:vp_z="721.3854 : 348.21585 : 1"
       inkscape:persp3d-origin="351.85981 : -138.57198 : 1"
       id="perspective10" />
  </defs>
  <sodipodi:namedview
     id="base"
     pagecolor="#ffffff"
     bordercolor="#666666"
     borderopacity="1.0"
     gridtolerance="10000"
     guidetolerance="10"
     objecttolerance="10"
     inkscape:pageopacity="0.0"
     inkscape:pageshadow="2"
     inkscape:zoom="0.42333367"
     inkscape:cx="330.92519"
     inkscape:cy="398.13196"
     inkscape:document-units="px"
     inkscape:current-layer="layer1"
     showgrid="false"
     inkscape:window-width="1279"
     inkscape:window-height="948"
     inkscape:window-x="0"
     inkscape:window-y="25" />
  <metadata
     id="metadata7">
    <rdf:RDF>
      <cc:Work
         rdf:about="">
        <dc:format>image/svg+xml</dc:format>
        <dc:type
           rdf:resource="http://purl.org/dc/dcmitype/StillImage" />
      </cc:Work>
    </rdf:RDF>
  </metadata>
  <g
     inkscape:label="Layer 1"
     inkscape:groupmode="layer"
     id="layer1">
    <flowRoot
       xml:space="preserve"
       id="flowRoot2383"
       style="font-size:72px;font-style:normal;font-weight:normal;fill:#000000;fill-opacity:1;stroke:none;stroke-width:1px;stroke-linecap:butt;stroke-linejoin:miter;stroke-opacity:1;font-family:Bitstream Vera Sans"><flowRegion
         id="flowRegion2385"><rect
           id="rect2387"
           width="245.71428"
           height="68.571426"
           x="97.14286"
           y="360.93362"
           style="font-size:72px" /></flowRegion><flowPara
         id="flowPara2389">VIRVi</flowPara></flowRoot>    <rect
       style="opacity:1;fill:#000000;fill-opacity:1;stroke:none;stroke-width:6.19999981;stroke-linecap:butt;stroke-linejoin:miter;stroke-miterlimit:4;stroke-dasharray:none;stroke-opacity:1"
       id="rect2421"
       width="327.9686"
       height="91.82888"
       x="163.65306"
       y="745.50348"
       rx="1.625224"
       ry="3.2318594" />
    <path
       style="font-size:127.33078003px;font-style:normal;font-variant:normal;font-weight:normal;font-stretch:normal;fill:#f3f3f3;fill-opacity:1;stroke:none;stroke-width:1px;stroke-linecap:butt;stroke-linejoin:miter;stroke-opacity:1;font-family:Delphine;-inkscape-font-specification:Delphine"
       d="M 218.11673,780.05371 C 210.476,792.0777 201.89433,803.6209 197.15523,817.22608 C 193.77324,830.86481 183.38442,822.09319 183.27119,812.51814 C 181.81593,802.37756 174.99234,792.26651 177.36408,782.23032 C 188.48813,786.35338 183.69114,804.20366 190.43647,813.05093 C 194.56473,812.40323 198.23804,799.10503 202.58116,793.66965 C 207.67964,788.704 209.05943,773.78076 216.60019,775.81153 C 217.68555,776.91049 218.34015,778.49503 218.11673,780.0537 M 222.85582,758.15277 C 219.08842,773.49449 212.89522,746.2677 222.73321,757.00843 L 222.80159,757.64661 L 222.85582,758.15277 z M 235.33424,821.18152 C 224.35632,827.93489 228.50336,805.74694 227.79717,799.26994 C 228.36417,794.19937 224.98437,775.54706 233.91211,782.60085 C 236.89636,793.54865 234.63432,805.20388 235.33424,816.44296 C 235.33424,818.02248 235.33424,819.60201 235.33424,821.18152 z M 287.81641,794.31476 C 284.1615,803.80244 275.73522,785.78151 270.35544,795.8912 C 260.96907,801.6069 252.29518,809.80822 250.40993,821.07418 C 251.08512,829.92642 241.72641,831.25639 242.43913,821.47885 C 243.89471,811.2405 239.27599,795.39175 246.95598,789.01179 C 251.73761,793.50075 245.95438,814.07898 255.48544,800.61491 C 262.74815,793.73075 279.11479,779.33347 287.11886,791.67155 L 287.57493,792.98438 L 287.81641,794.31474 M 292.48984,758.15277 C 288.72244,773.49448 282.52926,746.26769 292.36723,757.00843 L 292.43561,757.64661 L 292.48984,758.15277 z M 304.96826,821.18152 C 293.99035,827.93488 298.13739,805.74693 297.4312,799.26994 C 297.99821,794.19937 294.6184,775.54706 303.54614,782.60085 C 306.53039,793.54865 304.26836,805.20388 304.96826,816.44296 C 304.96826,818.02248 304.96826,819.602 304.96826,821.18152 z M 357.06845,810.10376 C 346.9344,817.20542 333.49039,815.51718 321.84745,817.22691 C 305.64902,815.20292 306.79806,795.32496 317.17796,786.85631 C 323.76131,777.15618 339.84518,773.6472 345.7883,785.7382 C 346.03442,798.97018 336.35632,778.08688 328.4223,785.30574 C 317.96631,788.71146 309.46171,807.65142 323.74214,811.73851 C 334.82148,814.668 347.79695,801.84454 357.06845,810.10376 L 357.06845,810.10376 z M 364.61078,758.15277 C 360.84337,773.49448 354.6502,746.26769 364.48817,757.00843 L 364.55655,757.64661 L 364.61078,758.15277 z M 377.0892,821.18152 C 366.11129,827.93488 370.25833,805.74693 369.55214,799.26994 C 370.11915,794.19937 366.73934,775.54706 375.66708,782.60085 C 378.65133,793.54865 376.3893,805.20388 377.0892,816.44296 C 377.0892,818.02248 377.0892,819.60201 377.0892,821.18152 z M 436.19257,826.14746 C 422.94577,832.87285 428.86913,807.20817 420.33352,804.84682 C 411.92334,813.28118 398.89409,823.29125 386.15157,818.69859 C 374.92742,809.42037 387.31989,793.53664 397.95447,790.46879 C 406.20311,790.10338 421.95502,796.61321 419.47843,781.93242 C 419.15575,776.3674 417.80653,757.23177 426.2521,763.40365 C 429.24095,775.56115 426.6749,788.33248 429.75271,800.54304 C 430.9069,809.33343 434.52309,817.73774 436.19257,826.14744 M 417.85693,797.37067 C 407.89993,795.61207 393.8147,794.48479 388.79081,805.39269 C 385.81515,820.18892 404.0627,811.6298 410.17771,806.96919 C 413.47866,804.50587 416.53998,801.36245 417.85694,797.37068 M 488.46783,819.52625 C 477.35185,825.96732 463.46633,825.69414 451.07989,827.08229 C 438.09953,826.3749 432.81993,813.12842 435.57387,801.92156 C 438.68847,792.06477 449.63255,783.03237 460.70859,780.95337 C 471.80317,778.64824 481.5863,797.78017 469.16449,802.36658 C 462.10068,809.54912 440.12042,801.99335 442.4391,815.03202 C 450.57593,825.5918 465.76542,819.67429 476.65494,817.64329 C 480.40487,816.68011 486.49334,814.76162 488.46782,819.52624 M 469.24088,793.93274 C 466.53716,780.26396 445.33465,789.79575 445.82116,800.45298 C 451.98179,804.66182 465.76788,800.19225 469.24087,793.93275"
       id="text2395" />
    <path
       style="opacity:1;fill:#ff0000;fill-opacity:1;stroke:none;stroke-width:6.19999980999999956;stroke-linecap:butt;stroke-linejoin:miter;stroke-miterlimit:4;stroke-dasharray:none;stroke-opacity:1"
       d="M 220.04415,753.01338 C 213.99213,752.60622 212.74179,762.2373 218.22618,763.9212 C 221.71748,765.20026 224.52084,762.07228 224.17386,758.66929 C 224.80819,755.92995 223.22174,752.6716 220.04415,753.01338 z"
       id="path3193" />
    <path
       style="opacity:1;fill:#0000ff;fill-opacity:1;stroke:none;stroke-width:6.19999980999999956;stroke-linecap:butt;stroke-linejoin:miter;stroke-miterlimit:4;stroke-dasharray:none;stroke-opacity:1"
       d="M 288.9699,752.90116 C 282.38294,753.38318 282.83498,765.46679 289.62078,764.66185 C 293.9469,764.0087 294.9573,757.70428 293.00984,754.4498 C 292.07663,753.19662 290.46705,752.7555 288.9699,752.90116 z"
       id="path3195" />
    <path
       style="opacity:1;fill:#ffff00;fill-opacity:1;stroke:none;stroke-width:6.19999980999999956;stroke-linecap:butt;stroke-linejoin:miter;stroke-miterlimit:4;stroke-dasharray:none;stroke-opacity:1"
       d="M 360.63383,753.28271 C 354.54194,753.40893 355.33691,765.09888 361.64381,764.10075 C 365.9928,764.10768 366.54108,758.0514 365.32464,754.96601 C 364.37163,753.32064 362.33337,753.15793 360.63383,753.28271 z"
       id="path3197" />
    <rect
       style="opacity:1;fill:#000000;fill-opacity:1;stroke:none;stroke-width:6.19999981;stroke-linecap:butt;stroke-linejoin:miter;stroke-miterlimit:4;stroke-dasharray:none;stroke-opacity:1"
       id="rect3257"
       width="85.064026"
       height="87.473686"
       x="60.371582"
       y="744.38745"
       rx="0.42152843"
       ry="3.0785809" />
    <path
       style="font-size:127.33078003px;font-style:normal;font-variant:normal;font-weight:normal;font-stretch:normal;fill:#f3f3f3;fill-opacity:1;stroke:none;stroke-width:1px;stroke-linecap:butt;stroke-linejoin:miter;stroke-opacity:1;font-family:Delphine;-inkscape-font-specification:Delphine"
       d="M 123.50617,757.93851 C 115.86544,769.9625 107.28377,781.5057 102.54467,795.11088 C 99.162677,808.74961 88.773857,799.97799 88.660627,790.40294 C 87.205367,780.26236 80.381777,770.15131 82.753517,760.11512 C 93.877567,764.23818 89.080577,782.08846 95.825907,790.93573 C 99.954167,790.28803 103.62748,776.98983 107.9706,771.55445 C 113.06908,766.5888 114.44887,751.66556 121.98963,753.69633 C 123.07499,754.79529 123.72959,756.37983 123.50617,757.9385"
       id="path3255"
       sodipodi:nodetypes="cccccccc" />
    <path
       style="fill:#ff0000;fill-opacity:1;stroke:none;stroke-width:6.19999981;stroke-linecap:butt;stroke-linejoin:miter;stroke-miterlimit:4;stroke-dasharray:none;stroke-opacity:1"
       d="M 89.920531,810.40505 C 83.868511,809.99789 82.618171,819.62897 88.102561,821.31287 C 91.593861,822.59193 94.397221,819.46395 94.050241,816.06096 C 94.684571,813.32162 93.098121,810.06327 89.920531,810.40505 z"
       id="path3259" />
    <path
       style="fill:#0000ff;fill-opacity:1;stroke:none;stroke-width:6.19999981;stroke-linecap:butt;stroke-linejoin:miter;stroke-miterlimit:4;stroke-dasharray:none;stroke-opacity:1"
       d="M 102.79671,810.10659 C 96.209741,810.58861 96.661781,822.67222 103.44759,821.86728 C 107.77371,821.21413 108.78411,814.90971 106.83665,811.65523 C 105.90344,810.40205 104.29386,809.96093 102.79671,810.10659 z"
       id="path3261" />
    <path
       style="fill:#ffff00;fill-opacity:1;stroke:none;stroke-width:6.19999981;stroke-linecap:butt;stroke-linejoin:miter;stroke-miterlimit:4;stroke-dasharray:none;stroke-opacity:1"
       d="M 115.94338,810.57005 C 109.85149,810.69627 110.64646,822.38622 116.95336,821.38809 C 121.30235,821.39502 121.85063,815.33874 120.63419,812.25335 C 119.68118,810.60798 117.64292,810.44527 115.94338,810.57005 z"
       id="path3263" />
    <path
       style="font-size:127.33078003000002809px;font-style:normal;font-variant:normal;font-weight:normal;font-stretch:normal;fill:#444444;fill-opacity:1;stroke:none;stroke-width:1px;stroke-linecap:butt;stroke-linejoin:miter;stroke-opacity:1;font-family:Delphine;-inkscape-font-specification:Delphine"
       d="M 216.88934,893.73181 C 209.24861,905.7558 200.66694,917.299 195.92784,930.90418 C 192.54585,944.54291 182.15703,935.77129 182.0438,926.19624 C 180.58854,916.05566 173.76495,905.94461 176.13669,895.90842 C 187.26074,900.03148 182.46375,917.88176 189.20908,926.72903 C 193.33734,926.08133 197.01065,912.78313 201.35377,907.34775 C 206.45225,902.3821 207.83204,887.45886 215.3728,889.48963 C 216.45816,890.58859 217.11276,892.17313 216.88934,893.7318 M 221.62843,871.83087 C 217.86103,887.17259 211.66783,859.9458 221.50582,870.68653 L 221.5742,871.32471 L 221.62843,871.83087 z M 234.10685,934.85962 C 223.12893,941.61299 227.27597,919.42504 226.56978,912.94804 C 227.13678,907.87747 223.75698,889.22516 232.68472,896.27895 C 235.66897,907.22675 233.40693,918.88198 234.10685,930.12106 C 234.10685,931.70058 234.10685,933.28011 234.10685,934.85962 z M 286.58902,907.99286 C 282.93411,917.48054 274.50783,899.45961 269.12805,909.5693 C 259.74168,915.285 251.06779,923.48632 249.18254,934.75228 C 249.85773,943.60452 240.49902,944.93449 241.21174,935.15695 C 242.66732,924.9186 238.0486,909.06985 245.72859,902.68989 C 250.51022,907.17885 244.72699,927.75708 254.25805,914.29301 C 261.52076,907.40885 277.8874,893.01157 285.89147,905.34965 L 286.34754,906.66248 L 286.58902,907.99284 M 291.26245,871.83087 C 287.49505,887.17258 281.30187,859.94579 291.13984,870.68653 L 291.20822,871.32471 L 291.26245,871.83087 z M 303.74087,934.85962 C 292.76296,941.61298 296.91,919.42503 296.20381,912.94804 C 296.77082,907.87747 293.39101,889.22516 302.31875,896.27895 C 305.303,907.22675 303.04097,918.88198 303.74087,930.12106 C 303.74087,931.70058 303.74087,933.2801 303.74087,934.85962 z M 355.84106,923.78186 C 345.70701,930.88352 332.263,929.19528 320.62006,930.90501 C 304.42163,928.88102 305.57067,909.00306 315.95057,900.53441 C 322.53392,890.83428 338.61779,887.3253 344.56091,899.4163 C 344.80703,912.64828 335.12893,891.76498 327.19491,898.98384 C 316.73892,902.38956 308.23432,921.32952 322.51475,925.41661 C 333.59409,928.3461 346.56956,915.52264 355.84106,923.78186 L 355.84106,923.78186 z M 363.38339,871.83087 C 359.61598,887.17258 353.42281,859.94579 363.26078,870.68653 L 363.32916,871.32471 L 363.38339,871.83087 z M 375.86181,934.85962 C 364.8839,941.61298 369.03094,919.42503 368.32475,912.94804 C 368.89176,907.87747 365.51195,889.22516 374.43969,896.27895 C 377.42394,907.22675 375.16191,918.88198 375.86181,930.12106 C 375.86181,931.70058 375.86181,933.28011 375.86181,934.85962 z M 434.96518,939.82556 C 421.71838,946.55095 427.64174,920.88627 419.10613,918.52492 C 410.69595,926.95928 397.6667,936.96935 384.92418,932.37669 C 373.70003,923.09847 386.0925,907.21474 396.72708,904.14689 C 404.97572,903.78148 420.72763,910.29131 418.25104,895.61052 C 417.92836,890.0455 416.57914,870.90987 425.02471,877.08175 C 428.01356,889.23925 425.44751,902.01058 428.52532,914.22114 C 429.67951,923.01153 433.2957,931.41584 434.96518,939.82554 M 416.62954,911.04877 C 406.67254,909.29017 392.58731,908.16289 387.56342,919.07079 C 384.58776,933.86702 402.83531,925.3079 408.95032,920.64729 C 412.25127,918.18397 415.31259,915.04055 416.62955,911.04878 M 487.24044,933.20435 C 476.12446,939.64542 462.23894,939.37224 449.8525,940.76039 C 436.87214,940.053 431.59254,926.80652 434.34648,915.59966 C 437.46108,905.74287 448.40516,896.71047 459.4812,894.63147 C 470.57578,892.32634 480.35891,911.45827 467.9371,916.04468 C 460.87329,923.22722 438.89303,915.67145 441.21171,928.71012 C 449.34854,939.2699 464.53803,933.35239 475.42755,931.32139 C 479.17748,930.35821 485.26595,928.43972 487.24043,933.20434 M 468.01349,907.61084 C 465.30977,893.94206 444.10726,903.47385 444.59377,914.13108 C 450.7544,918.33992 464.54049,913.87035 468.01348,907.61085"
       id="path3292" />
    <path
       style="opacity:1;fill:#ff0000;fill-opacity:1;stroke:#ff0000;stroke-width:0.90000000000000002;stroke-linecap:butt;stroke-linejoin:miter;stroke-miterlimit:4;stroke-dasharray:none;stroke-opacity:1"
       d="M 218.81676,866.69148 C 212.76474,866.28432 211.5144,875.9154 216.99879,877.5993 C 220.49009,878.87836 223.29345,875.75038 222.94647,872.34739 C 223.5808,869.60805 221.99435,866.3497 218.81676,866.69148 z"
       id="path3294" />
    <path
       style="opacity:1;fill:#ffff00;fill-opacity:1;stroke:#ffe21a;stroke-width:0.90000000000000002;stroke-linecap:butt;stroke-linejoin:miter;stroke-miterlimit:4;stroke-dasharray:none;stroke-opacity:1"
       d="M 287.74251,866.57926 C 281.15555,867.06128 281.60759,879.14489 288.39339,878.33995 C 292.71951,877.6868 293.72991,871.38238 291.78245,868.1279 C 290.84924,866.87472 289.23966,866.4336 287.74251,866.57926 z"
       id="path3296" />
    <path
       style="opacity:1;fill:#0000ff;fill-opacity:1;stroke:#0000ff;stroke-width:0.90000000000000002;stroke-linecap:butt;stroke-linejoin:miter;stroke-miterlimit:4;stroke-dasharray:none;stroke-opacity:1"
       d="M 359.40644,866.96081 C 353.31455,867.08703 354.10952,878.77698 360.41642,877.77885 C 364.76541,877.78578 365.31369,871.7295 364.09725,868.64411 C 363.14424,866.99874 361.10598,866.83603 359.40644,866.96081 z"
       id="path3298" />
    <path
       style="font-size:127.33078003000002809px;font-style:normal;font-variant:normal;font-weight:normal;font-stretch:normal;fill:#444444;fill-opacity:1;stroke:none;stroke-width:1px;stroke-linecap:butt;stroke-linejoin:miter;stroke-opacity:1;font-family:Delphine;-inkscape-font-specification:Delphine"
       d="M 122.27878,871.61661 C 114.63805,883.6406 106.05638,895.1838 101.31728,908.78898 C 97.935282,922.42771 87.546462,913.65609 87.433232,904.08104 C 85.977972,893.94046 79.154382,883.82941 81.526122,873.79322 C 92.650172,877.91628 87.853182,895.76656 94.598512,904.61383 C 98.726772,903.96613 102.40009,890.66793 106.74321,885.23255 C 111.84169,880.2669 113.22148,865.34366 120.76224,867.37443 C 121.8476,868.47339 122.5022,870.05793 122.27878,871.6166"
       id="path3302"
       sodipodi:nodetypes="cccccccc" />
    <path
       style="fill:#ff0000;fill-opacity:1;stroke:#ff0000;stroke-width:0.9;stroke-linecap:butt;stroke-linejoin:miter;stroke-miterlimit:4;stroke-dasharray:none;stroke-opacity:1"
       d="M 88.693145,924.08315 C 82.641125,923.67599 81.390785,933.30707 86.875175,934.99097 C 90.366475,936.27003 93.169835,933.14205 92.822855,929.73906 C 93.457185,926.99972 91.870735,923.74137 88.693145,924.08315 z"
       id="path3306" />
    <path
       style="fill:#ffff00;fill-opacity:1;stroke:#ffe21a;stroke-width:0.9;stroke-linecap:butt;stroke-linejoin:miter;stroke-miterlimit:4;stroke-dasharray:none;stroke-opacity:1"
       d="M 101.56932,923.78469 C 94.982355,924.26671 95.434395,936.35032 102.2202,935.54538 C 106.54632,934.89223 107.55672,928.58781 105.60926,925.33333 C 104.67605,924.08015 103.06647,923.63903 101.56932,923.78469 z"
       id="path3308" />
    <path
       style="fill:#0000ff;fill-opacity:1;stroke:#0000ff;stroke-width:0.90000000000000002;stroke-linecap:butt;stroke-linejoin:miter;stroke-miterlimit:4;stroke-dasharray:none;stroke-opacity:1"
       d="M 114.71599,924.24815 C 108.6241,924.37437 109.41907,936.06432 115.72597,935.06619 C 120.07496,935.07312 120.62324,929.01684 119.4068,925.93145 C 118.45379,924.28608 116.41553,924.12337 114.71599,924.24815 z"
       id="path3310" />
    <path
       style="font-size:127.33078003px;font-style:normal;font-variant:normal;font-weight:normal;font-stretch:normal;fill:#444444;fill-opacity:1;stroke:none;stroke-width:1px;stroke-linecap:butt;stroke-linejoin:miter;stroke-opacity:1;font-family:Delphine;-inkscape-font-specification:Delphine"
       d="M 206.68818,984.4384 C 199.04745,996.46239 190.46578,1008.0056 185.72668,1021.6108 C 182.34469,1035.2495 171.95587,1026.4779 171.84264,1016.9028 C 170.38738,1006.7623 163.56379,996.6512 165.93553,986.61501 C 177.05958,990.73807 172.26259,1008.5884 179.00792,1017.4356 C 183.13618,1016.7879 186.80949,1003.4897 191.15261,998.05434 C 196.25109,993.08869 197.63088,978.16545 205.17164,980.19622 C 206.257,981.29518 206.9116,982.87972 206.68818,984.43839 M 211.42727,962.53746 C 207.65987,977.87918 201.46667,950.65239 211.30466,961.39312 L 211.37304,962.0313 L 211.42727,962.53746 z M 223.90569,1025.5662 C 212.92777,1032.3196 217.07481,1010.1316 216.36862,1003.6546 C 216.93562,998.58406 213.55582,979.93175 222.48356,986.98554 C 225.46781,997.93334 223.20577,1009.5886 223.90569,1020.8277 C 223.90569,1022.4072 223.90569,1023.9867 223.90569,1025.5662 z M 276.38786,998.69945 C 272.73295,1008.1871 264.30667,990.1662 258.92689,1000.2759 C 249.54052,1005.9916 240.86663,1014.1929 238.98138,1025.4589 C 239.65657,1034.3111 230.29786,1035.6411 231.01058,1025.8635 C 232.46616,1015.6252 227.84744,999.77644 235.52743,993.39648 C 240.30906,997.88544 234.52583,1018.4637 244.05689,1004.9996 C 251.3196,998.11544 267.68624,983.71816 275.69031,996.05624 L 276.14638,997.36907 L 276.38786,998.69943 M 281.06129,962.53746 C 277.29389,977.87917 271.10071,950.65238 280.93868,961.39312 L 281.00706,962.0313 L 281.06129,962.53746 z M 293.53971,1025.5662 C 282.5618,1032.3196 286.70884,1010.1316 286.00265,1003.6546 C 286.56966,998.58406 283.18985,979.93175 292.11759,986.98554 C 295.10184,997.93334 292.83981,1009.5886 293.53971,1020.8277 C 293.53971,1022.4072 293.53971,1023.9867 293.53971,1025.5662 z M 345.6399,1014.4885 C 335.50585,1021.5901 322.06184,1019.9019 310.4189,1021.6116 C 294.22047,1019.5876 295.36951,999.70965 305.74941,991.241 C 312.33276,981.54087 328.41663,978.03189 334.35975,990.12289 C 334.60587,1003.3549 324.92777,982.47157 316.99375,989.69043 C 306.53776,993.09615 298.03316,1012.0361 312.31359,1016.1232 C 323.39293,1019.0527 336.3684,1006.2292 345.6399,1014.4885 L 345.6399,1014.4885 z M 353.18223,962.53746 C 349.41482,977.87917 343.22165,950.65238 353.05962,961.39312 L 353.128,962.0313 L 353.18223,962.53746 z M 365.66065,1025.5662 C 354.68274,1032.3196 358.82978,1010.1316 358.12359,1003.6546 C 358.6906,998.58406 355.31079,979.93175 364.23853,986.98554 C 367.22278,997.93334 364.96075,1009.5886 365.66065,1020.8277 C 365.66065,1022.4072 365.66065,1023.9867 365.66065,1025.5662 z M 424.76402,1030.5322 C 411.51722,1037.2575 417.44058,1011.5929 408.90497,1009.2315 C 400.49479,1017.6659 387.46554,1027.6759 374.72302,1023.0833 C 363.49887,1013.8051 375.89134,997.92133 386.52592,994.85348 C 394.77456,994.48807 410.52647,1000.9979 408.04988,986.31711 C 407.7272,980.75209 406.37798,961.61646 414.82355,967.78834 C 417.8124,979.94584 415.24635,992.71717 418.32416,1004.9277 C 419.47835,1013.7181 423.09454,1022.1224 424.76402,1030.5321 M 406.42838,1001.7554 C 396.47138,999.99676 382.38615,998.86948 377.36226,1009.7774 C 374.3866,1024.5736 392.63415,1016.0145 398.74916,1011.3539 C 402.05011,1008.8906 405.11143,1005.7471 406.42839,1001.7554 M 477.03928,1023.9109 C 465.9233,1030.352 452.03778,1030.0788 439.65134,1031.467 C 426.67098,1030.7596 421.39138,1017.5131 424.14532,1006.3063 C 427.25992,996.44946 438.204,987.41706 449.28004,985.33806 C 460.37462,983.03293 470.15775,1002.1649 457.73594,1006.7513 C 450.67213,1013.9338 428.69187,1006.378 431.01055,1019.4167 C 439.14738,1029.9765 454.33687,1024.059 465.22639,1022.028 C 468.97632,1021.0648 475.06479,1019.1463 477.03927,1023.9109 M 457.81233,998.31743 C 455.10861,984.64865 433.9061,994.18044 434.39261,1004.8377 C 440.55324,1009.0465 454.33933,1004.5769 457.81232,998.31744"
       id="path3318" />
    <path
       style="opacity:1;fill:#ff0000;fill-opacity:1;stroke:none;stroke-width:0.89999998000000003;stroke-linecap:butt;stroke-linejoin:miter;stroke-miterlimit:4;stroke-dasharray:none;stroke-opacity:1"
       d="M 208.6156,957.39807 C 202.56358,956.99091 201.31324,966.62199 206.79763,968.30589 C 210.28893,969.58495 213.09229,966.45697 212.74531,963.05398 C 213.37964,960.31464 211.79319,957.05629 208.6156,957.39807 z"
       id="path3320" />
    <path
       style="opacity:1;fill:#00ff00;fill-opacity:1;stroke:none;stroke-width:0.89999998000000003;stroke-linecap:butt;stroke-linejoin:miter;stroke-miterlimit:4;stroke-dasharray:none;stroke-opacity:1"
       d="M 277.54135,957.28585 C 270.95439,957.76787 271.40643,969.85148 278.19223,969.04654 C 282.51835,968.39339 283.52875,962.08897 281.58129,958.83449 C 280.64808,957.58131 279.0385,957.14019 277.54135,957.28585 z"
       id="path3322" />
    <path
       style="opacity:1;fill:#0000ff;fill-opacity:1;stroke:none;stroke-width:0.89999998000000003;stroke-linecap:butt;stroke-linejoin:miter;stroke-miterlimit:4;stroke-dasharray:none;stroke-opacity:1"
       d="M 349.20528,957.6674 C 343.11339,957.79362 343.90836,969.48357 350.21526,968.48544 C 354.56425,968.49237 355.11253,962.43609 353.89609,959.3507 C 352.94308,957.70533 350.90482,957.54262 349.20528,957.6674 z"
       id="path3324" />
    <path
       style="font-size:127.33078003px;font-style:normal;font-variant:normal;font-weight:normal;font-stretch:normal;fill:#444444;fill-opacity:1;stroke:none;stroke-width:1px;stroke-linecap:butt;stroke-linejoin:miter;stroke-opacity:1;font-family:Delphine;-inkscape-font-specification:Delphine"
       d="M 112.07762,962.3232 C 104.43689,974.34719 95.855225,985.89039 91.116125,999.49557 C 87.734125,1013.1343 77.345305,1004.3627 77.232075,994.78763 C 75.776815,984.64705 68.953225,974.536 71.324965,964.49981 C 82.449015,968.62287 77.652025,986.47315 84.397355,995.32042 C 88.525615,994.67272 92.198935,981.37452 96.542055,975.93914 C 101.64053,970.97349 103.02032,956.05025 110.56108,958.08102 C 111.64644,959.17998 112.30104,960.76452 112.07762,962.32319"
       id="path3326"
       sodipodi:nodetypes="cccccccc" />
    <path
       style="fill:#ff0000;fill-opacity:1;stroke:none;stroke-width:6.19999981;stroke-linecap:butt;stroke-linejoin:miter;stroke-miterlimit:4;stroke-dasharray:none;stroke-opacity:1"
       d="M 78.491995,1014.7897 C 72.439975,1014.3826 71.189635,1024.0137 76.674025,1025.6976 C 80.165325,1026.9766 82.968685,1023.8486 82.621705,1020.4457 C 83.256035,1017.7063 81.669585,1014.448 78.491995,1014.7897 z"
       id="path3328" />
    <path
       style="fill:#00ff00;fill-opacity:1;stroke:none;stroke-width:6.19999981;stroke-linecap:butt;stroke-linejoin:miter;stroke-miterlimit:4;stroke-dasharray:none;stroke-opacity:1"
       d="M 91.368165,1014.4913 C 84.781205,1014.9733 85.233245,1027.0569 92.019045,1026.252 C 96.345165,1025.5988 97.355565,1019.2944 95.408105,1016.0399 C 94.474895,1014.7867 92.865315,1014.3456 91.368165,1014.4913 z"
       id="path3330" />
    <path
       style="fill:#0000ff;fill-opacity:1;stroke:none;stroke-width:6.19999981;stroke-linecap:butt;stroke-linejoin:miter;stroke-miterlimit:4;stroke-dasharray:none;stroke-opacity:1"
       d="M 104.51483,1014.9547 C 98.422945,1015.081 99.217915,1026.7709 105.52481,1025.7728 C 109.8738,1025.7797 110.42208,1019.7234 109.20564,1016.638 C 108.25263,1014.9927 106.21437,1014.83 104.51483,1014.9547 z"
       id="path3332" />
  </g>
</svg>
