<?xml version="1.0" encoding="UTF-8" standalone="no"?>
<!-- Created with Inkscape (http://www.inkscape.org/) -->
<svg
   xmlns:dc="http://purl.org/dc/elements/1.1/"
   xmlns:cc="http://creativecommons.org/ns#"
   xmlns:rdf="http://www.w3.org/1999/02/22-rdf-syntax-ns#"
   xmlns:svg="http://www.w3.org/2000/svg"
   xmlns="http://www.w3.org/2000/svg"
   xmlns:sodipodi="http://sodipodi.sourceforge.net/DTD/sodipodi-0.dtd"
   xmlns:inkscape="http://www.inkscape.org/namespaces/inkscape"
   width="744.09448819"
   height="1052.3622047"
   id="svg2"
   sodipodi:version="0.32"
   inkscape:version="0.46"
   sodipodi:docname="viruses.svg"
   inkscape:output_extension="org.inkscape.output.svg.inkscape">
  <defs
     id="defs4">
    <marker
       inkscape:stockid="DotL"
       orient="auto"
       refY="0.0"
       refX="0.0"
       id="DotL"
       style="overflow:visible">
      <path
         id="path3354"
         d="M -2.5,-1.0 C -2.5,1.7600000 -4.7400000,4.0 -7.5,4.0 C -10.260000,4.0 -12.5,1.7600000 -12.5,-1.0 C -12.5,-3.7600000 -10.260000,-6.0 -7.5,-6.0 C -4.7400000,-6.0 -2.5,-3.7600000 -2.5,-1.0 z "
         style="fill-rule:evenodd;stroke:#000000;stroke-width:1.0pt;marker-start:none;marker-end:none"
         transform="scale(0.8) translate(7.4, 1)" />
    </marker>
    <marker
       inkscape:stockid="Arrow1Lstart"
       orient="auto"
       refY="0.0"
       refX="0.0"
       id="Arrow1Lstart"
       style="overflow:visible">
      <path
         id="path3292"
         d="M 0.0,0.0 L 5.0,-5.0 L -12.5,0.0 L 5.0,5.0 L 0.0,0.0 z "
         style="fill-rule:evenodd;stroke:#000000;stroke-width:1.0pt;marker-start:none"
         transform="scale(0.8) translate(12.5,0)" />
    </marker>
    <inkscape:perspective
       sodipodi:type="inkscape:persp3d"
       inkscape:vp_x="0 : 526.18109 : 1"
       inkscape:vp_y="6.1230318e-14 : 1000 : 0"
       inkscape:vp_z="744.09448 : 526.18109 : 1"
       inkscape:persp3d-origin="372.04724 : 350.78739 : 1"
       id="perspective10" />
    <inkscape:perspective
       id="perspective3273"
       inkscape:persp3d-origin="372.04724 : 350.78739 : 1"
       inkscape:vp_z="744.09448 : 526.18109 : 1"
       inkscape:vp_y="0 : 1000 : 0"
       inkscape:vp_x="0 : 526.18109 : 1"
       sodipodi:type="inkscape:persp3d" />
    <inkscape:perspective
       id="perspective5708"
       inkscape:persp3d-origin="372.04724 : 350.78739 : 1"
       inkscape:vp_z="744.09448 : 526.18109 : 1"
       inkscape:vp_y="0 : 1000 : 0"
       inkscape:vp_x="0 : 526.18109 : 1"
       sodipodi:type="inkscape:persp3d" />
    <filter
       inkscape:collect="always"
       id="filter3582"
       x="-0.18613103"
       width="1.3722621"
       y="-0.3337522"
       height="1.6675044">
      <feGaussianBlur
         inkscape:collect="always"
         stdDeviation="4.847676"
         id="feGaussianBlur3584" />
    </filter>
    <filter
       inkscape:collect="always"
       id="filter3630"
       x="-0.074709257"
       width="1.1494185"
       y="-0.57372908"
       height="2.1474582">
      <feGaussianBlur
         inkscape:collect="always"
         stdDeviation="4.3399031"
         id="feGaussianBlur3632" />
    </filter>
  </defs>
  <sodipodi:namedview
     id="base"
     pagecolor="#ffffff"
     bordercolor="#666666"
     borderopacity="1.0"
     gridtolerance="10000"
     guidetolerance="10"
     objecttolerance="10"
     inkscape:pageopacity="0.0"
     inkscape:pageshadow="2"
     inkscape:zoom="0.29412524"
     inkscape:cx="344.41008"
     inkscape:cy="546.88118"
     inkscape:document-units="px"
     inkscape:current-layer="layer1"
     showgrid="false"
     inkscape:snap-global="true"
     inkscape:window-width="1274"
     inkscape:window-height="947"
     inkscape:window-x="0"
     inkscape:window-y="25">
    <inkscape:grid
       type="xygrid"
       id="grid5632" />
  </sodipodi:namedview>
  <metadata
     id="metadata7">
    <rdf:RDF>
      <cc:Work
         rdf:about="">
        <dc:format>image/svg+xml</dc:format>
        <dc:type
           rdf:resource="http://purl.org/dc/dcmitype/StillImage" />
      </cc:Work>
    </rdf:RDF>
  </metadata>
  <g
     inkscape:label="Layer 1"
     inkscape:groupmode="layer"
     id="layer1">
    <g
       id="g3272"
       style="stroke:#0069ff;stroke-opacity:1"
       transform="translate(-47.598771,-132.59658)">
      <path
         sodipodi:nodetypes="cccc"
         id="path5658"
         d="M 311.65598,405.69015 L 366.65598,425.69017 C 366.65598,427.3957 231.65598,507.3957 231.65598,505.69017 C 231.65598,505.69017 311.42248,405.69015 311.65598,405.69015 z"
         style="fill:#0069ff;fill-opacity:1;stroke:#0069ff;stroke-width:1;stroke-linecap:butt;stroke-linejoin:round;marker-start:none;stroke-miterlimit:4;stroke-dasharray:none;stroke-opacity:1" />
      <path
         sodipodi:nodetypes="cccc"
         id="path5656"
         d="M 151.65598,405.69015 L 311.65598,405.69015 C 311.65598,407.39568 231.65598,507.3957 231.65598,505.69017 C 231.65598,505.69017 151.42248,405.69015 151.65598,405.69015 z"
         style="fill:#0069ff;fill-opacity:1;stroke:#0069ff;stroke-width:1;stroke-linecap:butt;stroke-linejoin:round;marker-start:none;stroke-miterlimit:4;stroke-dasharray:none;stroke-opacity:1" />
      <path
         sodipodi:nodetypes="cccc"
         id="path5654"
         d="M 101.65602,425.69017 L 231.65598,505.69017 C 231.65598,507.3957 151.65598,407.39568 151.65598,405.69015 C 151.65598,405.69015 101.4225,425.69017 101.65602,425.69017 z"
         style="fill:#0069ff;fill-opacity:1;stroke:#0069ff;stroke-width:1;stroke-linecap:butt;stroke-linejoin:round;marker-start:none;stroke-miterlimit:4;stroke-dasharray:none;stroke-opacity:1" />
      <path
         sodipodi:nodetypes="cccc"
         id="path5648"
         d="M 311.65598,405.69015 L 366.65598,275.69017 C 366.65598,277.3957 366.65598,427.3957 366.65598,425.69017 C 366.65598,425.69017 311.42248,405.69015 311.65598,405.69015 z"
         style="fill:#0069ff;fill-opacity:1;stroke:#0069ff;stroke-width:1;stroke-linecap:butt;stroke-linejoin:round;marker-start:none;stroke-miterlimit:4;stroke-dasharray:none;stroke-opacity:1" />
      <path
         sodipodi:nodetypes="cccc"
         id="path5650"
         d="M 151.65598,405.69015 L 101.65602,275.69015 C 101.65602,277.39568 101.65602,427.3957 101.65602,425.69017 C 101.65602,425.69017 151.42248,405.69015 151.65598,405.69015 z"
         style="fill:#0069ff;fill-opacity:1;stroke:#0069ff;stroke-width:1;stroke-linecap:butt;stroke-linejoin:round;marker-start:none;stroke-miterlimit:4;stroke-dasharray:none;stroke-opacity:1" />
      <path
         sodipodi:nodetypes="cccc"
         id="path5636"
         d="M 231.65598,265.69016 L 366.65598,275.69017 C 366.65598,277.3957 311.65598,407.39568 311.65598,405.69015 C 311.65598,405.69015 231.42248,265.69016 231.65598,265.69016 z"
         style="fill:#0069ff;fill-opacity:1;stroke:#0069ff;stroke-width:1;stroke-linecap:butt;stroke-linejoin:round;marker-start:none;stroke-miterlimit:4;stroke-dasharray:none;stroke-opacity:1" />
      <path
         sodipodi:nodetypes="cccc"
         id="path5652"
         d="M 151.65598,405.69015 L 231.65598,265.69016 C 231.65598,267.39569 311.65598,407.39568 311.65598,405.69015 C 311.65598,405.69015 151.42248,405.69015 151.65598,405.69015 z"
         style="fill:#0069ff;fill-opacity:1;stroke:#0069ff;stroke-width:1;stroke-linecap:butt;stroke-linejoin:round;marker-start:none;stroke-miterlimit:4;stroke-dasharray:none;stroke-opacity:1" />
      <path
         sodipodi:nodetypes="cccc"
         id="path5634"
         d="M 101.65602,275.69015 L 231.65598,265.69016 C 231.65598,267.39569 151.65598,407.39568 151.65598,405.69015 C 151.65598,405.69015 101.4225,275.69015 101.65602,275.69015 z"
         style="fill:#0069ff;fill-opacity:1;stroke:#0069ff;stroke-width:1;stroke-linecap:butt;stroke-linejoin:round;marker-start:none;stroke-miterlimit:4;stroke-dasharray:none;stroke-opacity:1" />
      <path
         sodipodi:nodetypes="cccc"
         id="path3283"
         d="M 231.65598,185.69017 L 366.65598,275.69017 L 231.65598,265.69015 C 231.65598,265.69015 231.42248,185.69017 231.65598,185.69017 z"
         style="fill:#0069ff;fill-opacity:1;stroke:#0069ff;stroke-width:1;stroke-linecap:butt;stroke-linejoin:round;marker-start:none;stroke-miterlimit:4;stroke-dasharray:none;stroke-opacity:1" />
      <path
         sodipodi:nodetypes="cccc"
         id="path3285"
         d="M 231.65598,185.69017 L 231.65598,265.69015 L 101.65602,275.69014 C 101.65602,275.69014 231.42248,185.69017 231.65598,185.69017 z"
         style="fill:#0069ff;fill-opacity:1;stroke:#0069ff;stroke-width:1;stroke-linecap:butt;stroke-linejoin:round;marker-start:none;stroke-miterlimit:4;stroke-dasharray:none;stroke-opacity:1" />
    </g>
    <g
       id="g3559"
       style="opacity:0.69396548"
       transform="translate(-47.598771,-132.59658)">
      <path
         sodipodi:nodetypes="cccc"
         id="path3287"
         d="M 231.65598,185.69022 L 321.65598,285.69018 C 321.65598,287.39571 141.65598,287.39571 141.65598,285.69018 C 141.65598,285.69018 231.42248,185.69022 231.65598,185.69022 z"
         style="opacity:1;fill:#3c87f4;fill-opacity:1;stroke:none;stroke-width:1;stroke-linecap:butt;stroke-linejoin:round;marker-start:none;stroke-miterlimit:4;stroke-dasharray:none;stroke-opacity:1" />
      <path
         sodipodi:nodetypes="cccc"
         id="path3281"
         d="M 231.65598,185.69021 L 366.65598,275.69017 C 366.65598,277.3957 321.65598,287.3957 321.65598,285.69017 C 321.65598,285.69017 231.42248,185.69021 231.65598,185.69021 z"
         style="opacity:1;fill:#0e68e6;fill-opacity:1;stroke:none;stroke-width:1;stroke-linecap:butt;stroke-linejoin:round;marker-start:none;stroke-miterlimit:4;stroke-dasharray:none;stroke-opacity:1" />
      <path
         sodipodi:nodetypes="cccc"
         id="path3205"
         d="M 231.65598,185.69021 L 141.65598,285.69017 C 141.65598,287.3957 101.65602,277.3957 101.65602,275.69017 C 101.65602,275.69017 231.42248,185.69021 231.65598,185.69021 z"
         style="opacity:1;fill:#79b2ff;fill-opacity:1;stroke:none;stroke-width:1;stroke-linecap:butt;stroke-linejoin:round;marker-start:none;stroke-miterlimit:4;stroke-dasharray:none;stroke-opacity:1" />
      <path
         sodipodi:nodetypes="cccc"
         id="path5638"
         d="M 101.65602,275.69018 L 141.65598,285.69018 C 141.65598,287.39571 101.65602,427.3957 101.65602,425.69017 C 101.65602,425.69017 101.4225,275.69018 101.65602,275.69018 z"
         style="opacity:1;fill:#3585f3;fill-opacity:1;stroke:none;stroke-width:1;stroke-linecap:butt;stroke-linejoin:round;marker-start:none;stroke-miterlimit:4;stroke-dasharray:none;stroke-opacity:1" />
      <path
         sodipodi:nodetypes="cccc"
         id="path5640"
         d="M 141.65598,285.69018 L 231.65598,435.69018 C 231.65598,437.39571 101.65602,427.3957 101.65602,425.69017 C 101.65602,425.69017 141.42248,285.69018 141.65598,285.69018 z"
         style="opacity:1;fill:#0c61da;fill-opacity:1;stroke:none;stroke-width:1;stroke-linecap:butt;stroke-linejoin:round;marker-start:none;stroke-miterlimit:4;stroke-dasharray:none;stroke-opacity:1" />
      <path
         sodipodi:nodetypes="cccc"
         id="path5642"
         d="M 141.65598,285.69018 L 321.65598,285.69018 C 321.65598,287.39571 231.65598,437.39571 231.65598,435.69018 C 231.65598,435.69018 141.42248,285.69018 141.65598,285.69018 z"
         style="opacity:1;fill:#0d65e3;fill-opacity:1;stroke:none;stroke-width:1;stroke-linecap:butt;stroke-linejoin:round;marker-start:none;stroke-miterlimit:4;stroke-dasharray:none;stroke-opacity:1" />
      <path
         sodipodi:nodetypes="cccc"
         id="path5644"
         d="M 231.65598,435.69018 L 321.65598,285.69018 C 321.65598,287.39571 366.65598,427.3957 366.65598,425.69017 C 366.65598,425.69017 231.42248,435.69018 231.65598,435.69018 z"
         style="opacity:1;fill:#0b56c1;fill-opacity:1;stroke:none;stroke-width:1;stroke-linecap:butt;stroke-linejoin:round;marker-start:none;stroke-miterlimit:4;stroke-dasharray:none;stroke-opacity:1" />
      <path
         sodipodi:nodetypes="cccc"
         id="path5646"
         d="M 321.65598,285.69018 L 366.65598,275.69017 C 366.65598,277.3957 366.65598,427.3957 366.65598,425.69017 C 366.65598,425.69017 321.42248,285.69018 321.65598,285.69018 z"
         style="opacity:1;fill:#0c5bcc;fill-opacity:1;stroke:none;stroke-width:1;stroke-linecap:butt;stroke-linejoin:round;marker-start:none;stroke-miterlimit:4;stroke-dasharray:none;stroke-opacity:1" />
      <path
         sodipodi:nodetypes="cccc"
         id="path5660"
         d="M 231.65598,435.69018 L 366.65598,425.69017 C 366.65598,427.3957 231.65598,507.3957 231.65598,505.69017 C 231.65598,505.69017 231.42248,435.69018 231.65598,435.69018 z"
         style="opacity:1;fill:#0a51b6;fill-opacity:1;stroke:none;stroke-width:1;stroke-linecap:butt;stroke-linejoin:round;marker-start:none;stroke-miterlimit:4;stroke-dasharray:none;stroke-opacity:1" />
      <path
         sodipodi:nodetypes="cccc"
         id="path5662"
         d="M 231.65598,435.69018 L 101.65602,425.69017 C 101.65602,427.3957 231.65598,507.3957 231.65598,505.69017 C 231.65598,505.69017 231.42248,435.69018 231.65598,435.69018 z"
         style="opacity:1;fill:#0a58c5;fill-opacity:1;stroke:none;stroke-width:1;stroke-linecap:butt;stroke-linejoin:round;marker-start:none;stroke-miterlimit:4;stroke-dasharray:none;stroke-opacity:1" />
    </g>
    <g
       id="g3304"
       transform="translate(33.999122,-132.59658)">
      <path
         sodipodi:nodetypes="cccc"
         id="path6523"
         d="M 595.76729,404.78538 L 650.76729,424.7854 C 650.76729,426.49093 515.76729,506.49093 515.76729,504.7854 C 515.76729,504.7854 595.53379,404.78538 595.76729,404.78538 z"
         style="fill:#ff0000;fill-opacity:1;stroke:#ff0000;stroke-width:1;stroke-linecap:butt;stroke-linejoin:round;marker-start:none;stroke-miterlimit:4;stroke-dasharray:none;stroke-opacity:1" />
      <path
         sodipodi:nodetypes="cccc"
         id="path6525"
         d="M 435.76729,404.78538 L 595.76729,404.78538 C 595.76729,406.49091 515.76729,506.49093 515.76729,504.7854 C 515.76729,504.7854 435.53379,404.78538 435.76729,404.78538 z"
         style="fill:#ff0000;fill-opacity:1;stroke:#ff0000;stroke-width:1;stroke-linecap:butt;stroke-linejoin:round;marker-start:none;stroke-miterlimit:4;stroke-dasharray:none;stroke-opacity:1" />
      <path
         sodipodi:nodetypes="cccc"
         id="path6527"
         d="M 385.76729,424.7854 L 515.76729,504.7854 C 515.76729,506.49093 435.76729,406.49091 435.76729,404.78538 C 435.76729,404.78538 385.53379,424.7854 385.76729,424.7854 z"
         style="fill:#ff0000;fill-opacity:1;stroke:#ff0000;stroke-width:1;stroke-linecap:butt;stroke-linejoin:round;marker-start:none;stroke-miterlimit:4;stroke-dasharray:none;stroke-opacity:1" />
      <path
         sodipodi:nodetypes="cccc"
         id="path6529"
         d="M 595.76729,404.78538 L 650.76729,274.7854 C 650.76729,276.49093 650.76729,426.49093 650.76729,424.7854 C 650.76729,424.7854 595.53379,404.78538 595.76729,404.78538 z"
         style="fill:#ff0000;fill-opacity:1;stroke:#ff0000;stroke-width:1;stroke-linecap:butt;stroke-linejoin:round;marker-start:none;stroke-miterlimit:4;stroke-dasharray:none;stroke-opacity:1" />
      <path
         sodipodi:nodetypes="cccc"
         id="path6531"
         d="M 435.76729,404.78538 L 385.76729,274.78538 C 385.76729,276.49091 385.76729,426.49093 385.76729,424.7854 C 385.76729,424.7854 435.53379,404.78538 435.76729,404.78538 z"
         style="fill:#ff0000;fill-opacity:1;stroke:#ff0000;stroke-width:1;stroke-linecap:butt;stroke-linejoin:round;marker-start:none;stroke-miterlimit:4;stroke-dasharray:none;stroke-opacity:1" />
      <path
         sodipodi:nodetypes="cccc"
         id="path6533"
         d="M 515.76729,264.78539 L 650.76729,274.7854 C 650.76729,276.49093 595.76729,406.49091 595.76729,404.78538 C 595.76729,404.78538 515.53379,264.78539 515.76729,264.78539 z"
         style="fill:#ff0000;fill-opacity:1;stroke:#ff0000;stroke-width:1;stroke-linecap:butt;stroke-linejoin:round;marker-start:none;stroke-miterlimit:4;stroke-dasharray:none;stroke-opacity:1" />
      <path
         sodipodi:nodetypes="cccc"
         id="path6535"
         d="M 435.76729,404.78538 L 515.76729,264.78539 C 515.76729,266.49092 595.76729,406.49091 595.76729,404.78538 C 595.76729,404.78538 435.53379,404.78538 435.76729,404.78538 z"
         style="fill:#ff0000;fill-opacity:1;stroke:#ff0000;stroke-width:1;stroke-linecap:butt;stroke-linejoin:round;marker-start:none;stroke-miterlimit:4;stroke-dasharray:none;stroke-opacity:1" />
      <path
         sodipodi:nodetypes="cccc"
         id="path6537"
         d="M 385.76729,274.78538 L 515.76729,264.78539 C 515.76729,266.49092 435.76729,406.49091 435.76729,404.78538 C 435.76729,404.78538 385.53379,274.78538 385.76729,274.78538 z"
         style="fill:#ff0000;fill-opacity:1;stroke:#ff0000;stroke-width:1;stroke-linecap:butt;stroke-linejoin:round;marker-start:none;stroke-miterlimit:4;stroke-dasharray:none;stroke-opacity:1" />
      <path
         sodipodi:nodetypes="cccc"
         id="path6539"
         d="M 515.76729,184.7854 L 650.76729,274.7854 L 515.76729,264.78538 C 515.76729,264.78538 515.53379,184.7854 515.76729,184.7854 z"
         style="fill:#ff0000;fill-opacity:1;stroke:#ff0000;stroke-width:1;stroke-linecap:butt;stroke-linejoin:round;marker-start:none;stroke-miterlimit:4;stroke-dasharray:none;stroke-opacity:1" />
      <path
         sodipodi:nodetypes="cccc"
         id="path6541"
         d="M 515.76729,184.7854 L 515.76729,264.78538 L 385.76729,274.78537 C 385.76729,274.78537 515.53379,184.7854 515.76729,184.7854 z"
         style="fill:#ff0000;fill-opacity:1;stroke:#ff0000;stroke-width:1;stroke-linecap:butt;stroke-linejoin:round;marker-start:none;stroke-miterlimit:4;stroke-dasharray:none;stroke-opacity:1" />
    </g>
    <g
       id="g3581"
       style="opacity:0.66379311"
       transform="translate(33.999122,-132.59658)">
      <path
         sodipodi:nodetypes="cccc"
         id="path6543"
         d="M 515.76729,184.78545 L 605.76729,284.78541 C 605.76729,286.49094 425.76729,286.49094 425.76729,284.78541 C 425.76729,284.78541 515.53379,184.78545 515.76729,184.78545 z"
         style="opacity:1;fill:#ff3131;fill-opacity:1;stroke:none;stroke-width:1;stroke-linecap:butt;stroke-linejoin:round;marker-start:none;stroke-miterlimit:4;stroke-dasharray:none;stroke-opacity:1" />
      <path
         sodipodi:nodetypes="cccc"
         id="path6545"
         d="M 515.76729,184.78544 L 650.76729,274.7854 C 650.76729,276.49093 605.76729,286.49093 605.76729,284.7854 C 605.76729,284.7854 515.53379,184.78544 515.76729,184.78544 z"
         style="opacity:1;fill:#f40000;fill-opacity:1;stroke:none;stroke-width:1;stroke-linecap:butt;stroke-linejoin:round;marker-start:none;stroke-miterlimit:4;stroke-dasharray:none;stroke-opacity:1" />
      <path
         sodipodi:nodetypes="cccc"
         id="path6547"
         d="M 515.76729,184.78544 L 425.76729,284.7854 C 425.76729,286.49093 385.76729,276.49093 385.76729,274.7854 C 385.76729,274.7854 515.53379,184.78544 515.76729,184.78544 z"
         style="opacity:1;fill:#ff7979;fill-opacity:1;stroke:none;stroke-width:1;stroke-linecap:butt;stroke-linejoin:round;marker-start:none;stroke-miterlimit:4;stroke-dasharray:none;stroke-opacity:1" />
      <path
         sodipodi:nodetypes="cccc"
         id="path6549"
         d="M 385.76729,274.78541 L 425.76729,284.78541 C 425.76729,286.49094 385.76729,426.49093 385.76729,424.7854 C 385.76729,424.7854 385.53379,274.78541 385.76729,274.78541 z"
         style="opacity:1;fill:#ff2929;fill-opacity:1;stroke:none;stroke-width:1;stroke-linecap:butt;stroke-linejoin:round;marker-start:none;stroke-miterlimit:4;stroke-dasharray:none;stroke-opacity:1" />
      <path
         sodipodi:nodetypes="cccc"
         id="path6551"
         d="M 425.76729,284.78541 L 515.76729,434.78541 C 515.76729,436.49094 385.76729,426.49093 385.76729,424.7854 C 385.76729,424.7854 425.53379,284.78541 425.76729,284.78541 z"
         style="opacity:1;fill:#e60000;fill-opacity:1;stroke:none;stroke-width:1;stroke-linecap:butt;stroke-linejoin:round;marker-start:none;stroke-miterlimit:4;stroke-dasharray:none;stroke-opacity:1" />
      <path
         sodipodi:nodetypes="cccc"
         id="path6553"
         d="M 425.76729,284.78545 L 605.76729,284.78545 C 605.76729,286.49098 515.76729,436.49098 515.76729,434.78545 C 515.76729,434.78545 425.53379,284.78545 425.76729,284.78545 z"
         style="opacity:1;fill:#f00000;fill-opacity:1;stroke:none;stroke-width:1;stroke-linecap:butt;stroke-linejoin:round;marker-start:none;stroke-miterlimit:4;stroke-dasharray:none;stroke-opacity:1" />
      <path
         sodipodi:nodetypes="cccc"
         id="path6555"
         d="M 515.76729,434.78541 L 605.76729,284.78541 C 605.76729,286.49094 650.76729,426.49093 650.76729,424.7854 C 650.76729,424.7854 515.53379,434.78541 515.76729,434.78541 z"
         style="opacity:1;fill:#cc0000;fill-opacity:1;stroke:none;stroke-width:1;stroke-linecap:butt;stroke-linejoin:round;marker-start:none;stroke-miterlimit:4;stroke-dasharray:none;stroke-opacity:1" />
      <path
         sodipodi:nodetypes="cccc"
         id="path6557"
         d="M 605.76729,284.78541 L 650.76729,274.7854 C 650.76729,276.49093 650.76729,426.49093 650.76729,424.7854 C 650.76729,424.7854 605.53379,284.78541 605.76729,284.78541 z"
         style="opacity:1;fill:#d80000;fill-opacity:1;stroke:none;stroke-width:1;stroke-linecap:butt;stroke-linejoin:round;marker-start:none;stroke-miterlimit:4;stroke-dasharray:none;stroke-opacity:1" />
      <path
         sodipodi:nodetypes="cccc"
         id="path6559"
         d="M 515.76729,434.78541 L 650.76729,424.7854 C 650.76729,426.49093 515.76729,506.49093 515.76729,504.7854 C 515.76729,504.7854 515.53379,434.78541 515.76729,434.78541 z"
         style="opacity:1;fill:#c00000;fill-opacity:1;stroke:none;stroke-width:1;stroke-linecap:butt;stroke-linejoin:round;marker-start:none;stroke-miterlimit:4;stroke-dasharray:none;stroke-opacity:1" />
      <path
         sodipodi:nodetypes="cccc"
         id="path6561"
         d="M 515.76729,434.78541 L 385.76729,424.7854 C 385.76729,426.49093 515.76729,506.49093 515.76729,504.7854 C 515.76729,504.7854 515.53379,434.78541 515.76729,434.78541 z"
         style="opacity:1;fill:#d20000;fill-opacity:1;stroke:none;stroke-width:1;stroke-linecap:butt;stroke-linejoin:round;marker-start:none;stroke-miterlimit:4;stroke-dasharray:none;stroke-opacity:1" />
    </g>
    <g
       id="g3346"
       transform="translate(-173.39552,-20.399473)">
      <path
         sodipodi:nodetypes="cccc"
         id="path6563"
         d="M 446.21164,710.26184 L 501.21164,730.26186 C 501.21164,731.96739 366.21164,811.96739 366.21164,810.26186 C 366.21164,810.26186 445.97814,710.26184 446.21164,710.26184 z"
         style="fill:#00f01d;fill-opacity:1;stroke:#00f01d;stroke-width:1;stroke-linecap:butt;stroke-linejoin:round;marker-start:none;stroke-miterlimit:4;stroke-dasharray:none;stroke-opacity:1" />
      <path
         sodipodi:nodetypes="cccc"
         id="path6565"
         d="M 286.21164,710.26184 L 446.21164,710.26184 C 446.21164,711.96737 366.21164,811.96739 366.21164,810.26186 C 366.21164,810.26186 285.97814,710.26184 286.21164,710.26184 z"
         style="fill:#00f01d;fill-opacity:1;stroke:#00f01d;stroke-width:1;stroke-linecap:butt;stroke-linejoin:round;marker-start:none;stroke-miterlimit:4;stroke-dasharray:none;stroke-opacity:1" />
      <path
         sodipodi:nodetypes="cccc"
         id="path6567"
         d="M 236.21164,730.26186 L 366.21164,810.26186 C 366.21164,811.96739 286.21164,711.96737 286.21164,710.26184 C 286.21164,710.26184 235.97814,730.26186 236.21164,730.26186 z"
         style="fill:#00f01d;fill-opacity:1;stroke:#00f01d;stroke-width:1;stroke-linecap:butt;stroke-linejoin:round;marker-start:none;stroke-miterlimit:4;stroke-dasharray:none;stroke-opacity:1" />
      <path
         sodipodi:nodetypes="cccc"
         id="path6569"
         d="M 446.21164,710.26184 L 501.21164,580.26186 C 501.21164,581.96739 501.21164,731.96739 501.21164,730.26186 C 501.21164,730.26186 445.97814,710.26184 446.21164,710.26184 z"
         style="fill:#00f01d;fill-opacity:1;stroke:#00f01d;stroke-width:1;stroke-linecap:butt;stroke-linejoin:round;marker-start:none;stroke-miterlimit:4;stroke-dasharray:none;stroke-opacity:1" />
      <path
         sodipodi:nodetypes="cccc"
         id="path6571"
         d="M 286.21164,710.26184 L 236.21164,580.26184 C 236.21164,581.96737 236.21164,731.96739 236.21164,730.26186 C 236.21164,730.26186 285.97814,710.26184 286.21164,710.26184 z"
         style="fill:#00f01d;fill-opacity:1;stroke:#00f01d;stroke-width:1;stroke-linecap:butt;stroke-linejoin:round;marker-start:none;stroke-miterlimit:4;stroke-dasharray:none;stroke-opacity:1" />
      <path
         sodipodi:nodetypes="cccc"
         id="path6573"
         d="M 366.21164,570.26185 L 501.21164,580.26186 C 501.21164,581.96739 446.21164,711.96737 446.21164,710.26184 C 446.21164,710.26184 365.97814,570.26185 366.21164,570.26185 z"
         style="fill:#00f01d;fill-opacity:1;stroke:#00f01d;stroke-width:1;stroke-linecap:butt;stroke-linejoin:round;marker-start:none;stroke-miterlimit:4;stroke-dasharray:none;stroke-opacity:1" />
      <path
         sodipodi:nodetypes="cccc"
         id="path6575"
         d="M 286.21164,710.26184 L 366.21164,570.26185 C 366.21164,571.96738 446.21164,711.96737 446.21164,710.26184 C 446.21164,710.26184 285.97814,710.26184 286.21164,710.26184 z"
         style="fill:#00f01d;fill-opacity:1;stroke:#00f01d;stroke-width:1;stroke-linecap:butt;stroke-linejoin:round;marker-start:none;stroke-miterlimit:4;stroke-dasharray:none;stroke-opacity:1" />
      <path
         sodipodi:nodetypes="cccc"
         id="path6577"
         d="M 236.21164,580.26184 L 366.21164,570.26185 C 366.21164,571.96738 286.21164,711.96737 286.21164,710.26184 C 286.21164,710.26184 235.97814,580.26184 236.21164,580.26184 z"
         style="fill:#00f01d;fill-opacity:1;stroke:#00f01d;stroke-width:1;stroke-linecap:butt;stroke-linejoin:round;marker-start:none;stroke-miterlimit:4;stroke-dasharray:none;stroke-opacity:1" />
      <path
         sodipodi:nodetypes="cccc"
         id="path6579"
         d="M 366.21164,490.26186 L 501.21164,580.26186 L 366.21164,570.26184 C 366.21164,570.26184 365.97814,490.26186 366.21164,490.26186 z"
         style="fill:#00f01d;fill-opacity:1;stroke:#00f01d;stroke-width:1;stroke-linecap:butt;stroke-linejoin:round;marker-start:none;stroke-miterlimit:4;stroke-dasharray:none;stroke-opacity:1" />
      <path
         sodipodi:nodetypes="cccc"
         id="path6581"
         d="M 366.21164,490.26186 L 366.21164,570.26184 L 236.21164,580.26183 C 236.21164,580.26183 365.97814,490.26186 366.21164,490.26186 z"
         style="fill:#00f01d;fill-opacity:1;stroke:#00f01d;stroke-width:1;stroke-linecap:butt;stroke-linejoin:round;marker-start:none;stroke-miterlimit:4;stroke-dasharray:none;stroke-opacity:1" />
    </g>
    <g
       id="g3603"
       style="opacity:0.64224135"
       transform="translate(-173.39552,-20.399473)">
      <path
         sodipodi:nodetypes="cccc"
         id="path6583"
         d="M 366.21164,490.2619 L 456.21164,590.26187 C 456.21164,591.9674 276.21164,591.9674 276.21164,590.26187 C 276.21164,590.26187 365.97814,490.2619 366.21164,490.2619 z"
         style="opacity:1;fill:#31ff49;fill-opacity:1;stroke:none;stroke-width:1;stroke-linecap:butt;stroke-linejoin:round;marker-start:none;stroke-miterlimit:4;stroke-dasharray:none;stroke-opacity:1" />
      <path
         sodipodi:nodetypes="cccc"
         id="path6585"
         d="M 366.21164,490.26189 L 501.21164,580.26186 C 501.21164,581.96739 456.21164,591.96739 456.21164,590.26186 C 456.21164,590.26186 365.97814,490.26189 366.21164,490.26189 z"
         style="opacity:1;fill:#00f41c;fill-opacity:1;stroke:none;stroke-width:1;stroke-linecap:butt;stroke-linejoin:round;marker-start:none;stroke-miterlimit:4;stroke-dasharray:none;stroke-opacity:1" />
      <path
         sodipodi:nodetypes="cccc"
         id="path6587"
         d="M 366.21164,490.26189 L 276.21164,590.26186 C 276.21164,591.96739 236.21164,581.96739 236.21164,580.26186 C 236.21164,580.26186 365.97814,490.26189 366.21164,490.26189 z"
         style="opacity:1;fill:#79ff89;fill-opacity:1;stroke:none;stroke-width:1;stroke-linecap:butt;stroke-linejoin:round;marker-start:none;stroke-miterlimit:4;stroke-dasharray:none;stroke-opacity:1" />
      <path
         sodipodi:nodetypes="cccc"
         id="path6589"
         d="M 236.21164,580.26187 L 276.21164,590.26187 C 276.21164,591.9674 236.21164,731.96739 236.21164,730.26186 C 236.21164,730.26186 235.97814,580.26187 236.21164,580.26187 z"
         style="opacity:1;fill:#29ff42;fill-opacity:1;stroke:none;stroke-width:1;stroke-linecap:butt;stroke-linejoin:round;marker-start:none;stroke-miterlimit:4;stroke-dasharray:none;stroke-opacity:1" />
      <path
         sodipodi:nodetypes="cccc"
         id="path6591"
         d="M 276.21164,590.26187 L 366.21164,740.26187 C 366.21164,741.9674 236.21164,731.96739 236.21164,730.26186 C 236.21164,730.26186 275.97814,590.26187 276.21164,590.26187 z"
         style="opacity:1;fill:#00e61a;fill-opacity:1;stroke:none;stroke-width:1;stroke-linecap:butt;stroke-linejoin:round;marker-start:none;stroke-miterlimit:4;stroke-dasharray:none;stroke-opacity:1" />
      <path
         sodipodi:nodetypes="cccc"
         id="path6593"
         d="M 276.21164,590.26187 L 456.21164,590.26187 C 456.21164,591.9674 366.21164,741.9674 366.21164,740.26187 C 366.21164,740.26187 275.97814,590.26187 276.21164,590.26187 z"
         style="opacity:1;fill:#00f019;fill-opacity:1;stroke:none;stroke-width:1;stroke-linecap:butt;stroke-linejoin:round;marker-start:none;stroke-miterlimit:4;stroke-dasharray:none;stroke-opacity:1" />
      <path
         sodipodi:nodetypes="cccc"
         id="path6595"
         d="M 366.21164,740.26187 L 456.21164,590.26187 C 456.21164,591.9674 501.21164,731.96739 501.21164,730.26186 C 501.21164,730.26186 365.97814,740.26187 366.21164,740.26187 z"
         style="opacity:1;fill:#00cc18;fill-opacity:1;stroke:none;stroke-width:1;stroke-linecap:butt;stroke-linejoin:round;marker-start:none;stroke-miterlimit:4;stroke-dasharray:none;stroke-opacity:1" />
      <path
         sodipodi:nodetypes="cccc"
         id="path6597"
         d="M 456.21164,590.26187 L 501.21164,580.26186 C 501.21164,581.96739 501.21164,731.96739 501.21164,730.26186 C 501.21164,730.26186 455.97814,590.26187 456.21164,590.26187 z"
         style="opacity:1;fill:#00d818;fill-opacity:1;stroke:none;stroke-width:1;stroke-linecap:butt;stroke-linejoin:round;marker-start:none;stroke-miterlimit:4;stroke-dasharray:none;stroke-opacity:1" />
      <path
         sodipodi:nodetypes="cccc"
         id="path6599"
         d="M 366.21164,740.26187 L 501.21164,730.26186 C 501.21164,731.96739 366.21164,811.96739 366.21164,810.26186 C 366.21164,810.26186 365.97814,740.26187 366.21164,740.26187 z"
         style="opacity:1;fill:#00c017;fill-opacity:1;stroke:none;stroke-width:1;stroke-linecap:butt;stroke-linejoin:round;marker-start:none;stroke-miterlimit:4;stroke-dasharray:none;stroke-opacity:1" />
      <path
         sodipodi:nodetypes="cccc"
         id="path6601"
         d="M 366.21164,740.26187 L 236.21164,730.26186 C 236.21164,731.96739 366.21164,811.96739 366.21164,810.26186 C 366.21164,810.26186 365.97814,740.26187 366.21164,740.26187 z"
         style="opacity:1;fill:#00d219;fill-opacity:1;stroke:none;stroke-width:1;stroke-linecap:butt;stroke-linejoin:round;marker-start:none;stroke-miterlimit:4;stroke-dasharray:none;stroke-opacity:1" />
    </g>
    <path
       sodipodi:type="arc"
       style="opacity:0.8620688;fill:#ffffff;fill-opacity:1;stroke:none;stroke-width:1;stroke-linecap:butt;stroke-linejoin:round;stroke-miterlimit:4;stroke-dasharray:none;stroke-opacity:1;filter:url(#filter3582)"
       id="path3372"
       sodipodi:cx="550.53912"
       sodipodi:cy="112.95972"
       sodipodi:rx="31.253313"
       sodipodi:ry="17.429731"
       d="M 581.79244,112.95972 A 31.253313,17.429731 0 1 1 519.28581,112.95972 A 31.253313,17.429731 0 1 1 581.79244,112.95972 z"
       transform="matrix(0.9835503,0.1806347,-0.1806347,0.9835503,-375.1471,-11.411698)" />
    <path
       sodipodi:type="arc"
       style="opacity:0.86206868;fill:#ffffff;fill-opacity:1;stroke:none;stroke-width:1;stroke-linecap:butt;stroke-linejoin:round;stroke-miterlimit:4;stroke-dasharray:none;stroke-opacity:1;filter:url(#filter3582)"
       id="path3586"
       sodipodi:cx="550.53912"
       sodipodi:cy="112.95972"
       sodipodi:rx="31.253313"
       sodipodi:ry="17.429731"
       d="M 581.79244,112.95972 A 31.253313,17.429731 0 1 1 519.28581,112.95972 A 31.253313,17.429731 0 1 1 581.79244,112.95972 z"
       transform="matrix(0.9887772,-0.1493977,0.1493977,0.9887772,-338.37386,169.09262)" />
    <path
       style="opacity:0.90086209;fill:none;fill-rule:evenodd;stroke:#ffffff;stroke-width:12;stroke-linecap:butt;stroke-linejoin:miter;stroke-miterlimit:4;stroke-dasharray:none;stroke-opacity:1;filter:url(#filter3630)"
       d="M 123.50488,271.01041 C 235.29558,300.53264 250.92224,266.52187 250.92224,266.2022"
       id="path3588"
       sodipodi:nodetypes="cc" />
    <path
       sodipodi:type="arc"
       style="opacity:0.86206863;fill:#ffffff;fill-opacity:1;stroke:none;stroke-width:1;stroke-linecap:butt;stroke-linejoin:round;stroke-miterlimit:4;stroke-dasharray:none;stroke-opacity:1;filter:url(#filter3582)"
       id="path3634"
       sodipodi:cx="550.53912"
       sodipodi:cy="112.95972"
       sodipodi:rx="31.253313"
       sodipodi:ry="17.429731"
       d="M 581.79244,112.95972 A 31.253313,17.429731 0 1 1 519.28581,112.95972 A 31.253313,17.429731 0 1 1 581.79244,112.95972 z"
       transform="matrix(0.8835105,0.4684114,-0.4684114,0.8835105,77.245947,-159.75158)" />
    <path
       sodipodi:type="arc"
       style="opacity:0.86206863;fill:#ffffff;fill-opacity:1;stroke:none;stroke-width:1;stroke-linecap:butt;stroke-linejoin:round;stroke-miterlimit:4;stroke-dasharray:none;stroke-opacity:1;filter:url(#filter3582)"
       id="path3636"
       sodipodi:cx="550.53912"
       sodipodi:cy="112.95972"
       sodipodi:rx="31.253313"
       sodipodi:ry="17.429731"
       d="M 581.79244,112.95972 A 31.253313,17.429731 0 1 1 519.28581,112.95972 A 31.253313,17.429731 0 1 1 581.79244,112.95972 z"
       transform="matrix(0.8690615,-0.4947041,0.4947041,0.8690615,53.338669,371.51231)" />
    <path
       style="opacity:0.90086209;fill:none;fill-rule:evenodd;stroke:#ffffff;stroke-width:12;stroke-linecap:butt;stroke-linejoin:miter;stroke-miterlimit:4;stroke-dasharray:none;stroke-opacity:1;filter:url(#filter3630)"
       d="M 486.61499,285.102 C 555.85067,221.60009 613.77308,274.94649 614.03235,280.29379"
       id="path3638"
       sodipodi:nodetypes="cc" />
    <path
       sodipodi:type="arc"
       style="opacity:0.96120689;fill:#ffffff;fill-opacity:1;stroke:none;stroke-width:1;stroke-linecap:butt;stroke-linejoin:round;stroke-miterlimit:4;stroke-dasharray:none;stroke-opacity:1;filter:url(#filter3582)"
       id="path3640"
       sodipodi:cx="550.53912"
       sodipodi:cy="112.95972"
       sodipodi:rx="31.253313"
       sodipodi:ry="17.429731"
       d="M 581.79244,112.95972 A 31.253313,17.429731 0 1 1 519.28581,112.95972 A 31.253313,17.429731 0 1 1 581.79244,112.95972 z"
       transform="matrix(0.8677973,-0.4969184,0.4969184,0.8677973,-381.83744,791.66438)" />
    <path
       sodipodi:type="arc"
       style="opacity:0.96120689;fill:#ffffff;fill-opacity:1;stroke:none;stroke-width:1;stroke-linecap:butt;stroke-linejoin:round;stroke-miterlimit:4;stroke-dasharray:none;stroke-opacity:1;filter:url(#filter3582)"
       id="path3642"
       sodipodi:cx="550.53912"
       sodipodi:cy="112.95972"
       sodipodi:rx="31.253313"
       sodipodi:ry="17.429731"
       d="M 581.79244,112.95972 A 31.253313,17.429731 0 1 1 519.28581,112.95972 A 31.253313,17.429731 0 1 1 581.79244,112.95972 z"
       transform="matrix(0.8402994,0.5421226,-0.5421226,0.8402994,-172.39779,222.13686)" />
    <path
       style="opacity:0.96120689;fill:none;fill-rule:evenodd;stroke:#ffffff;stroke-width:12;stroke-linecap:butt;stroke-linejoin:miter;stroke-miterlimit:4;stroke-dasharray:none;stroke-opacity:1;filter:url(#filter3630)"
       d="M 131.32416,689.69156 C 154.93698,705.40739 172.72442,697.71652 195.20513,686.51793 C 209.58026,679.35708 222.26402,717.71053 258.74152,684.88335"
       id="path3644"
       sodipodi:nodetypes="csc" />
  </g>
</svg>
