<?xml version="1.0" encoding="UTF-8" standalone="no"?>
<!-- Created with Inkscape (http://www.inkscape.org/) -->
<svg
   xmlns:dc="http://purl.org/dc/elements/1.1/"
   xmlns:cc="http://creativecommons.org/ns#"
   xmlns:rdf="http://www.w3.org/1999/02/22-rdf-syntax-ns#"
   xmlns:svg="http://www.w3.org/2000/svg"
   xmlns="http://www.w3.org/2000/svg"
   xmlns:sodipodi="http://sodipodi.sourceforge.net/DTD/sodipodi-0.dtd"
   xmlns:inkscape="http://www.inkscape.org/namespaces/inkscape"
   width="744.09448819"
   height="1052.3622047"
   id="svg2"
   sodipodi:version="0.32"
   inkscape:version="0.46"
   sodipodi:docname="viruses.svg"
   inkscape:output_extension="org.inkscape.output.svg.inkscape">
  <defs
     id="defs4">
    <marker
       inkscape:stockid="DotL"
       orient="auto"
       refY="0.0"
       refX="0.0"
       id="DotL"
       style="overflow:visible">
      <path
         id="path3354"
         d="M -2.5,-1.0 C -2.5,1.7600000 -4.7400000,4.0 -7.5,4.0 C -10.260000,4.0 -12.5,1.7600000 -12.5,-1.0 C -12.5,-3.7600000 -10.260000,-6.0 -7.5,-6.0 C -4.7400000,-6.0 -2.5,-3.7600000 -2.5,-1.0 z "
         style="fill-rule:evenodd;stroke:#000000;stroke-width:1.0pt;marker-start:none;marker-end:none"
         transform="scale(0.8) translate(7.4, 1)" />
    </marker>
    <marker
       inkscape:stockid="Arrow1Lstart"
       orient="auto"
       refY="0.0"
       refX="0.0"
       id="Arrow1Lstart"
       style="overflow:visible">
      <path
         id="path3292"
         d="M 0.0,0.0 L 5.0,-5.0 L -12.5,0.0 L 5.0,5.0 L 0.0,0.0 z "
         style="fill-rule:evenodd;stroke:#000000;stroke-width:1.0pt;marker-start:none"
         transform="scale(0.8) translate(12.5,0)" />
    </marker>
    <inkscape:perspective
       sodipodi:type="inkscape:persp3d"
       inkscape:vp_x="0 : 526.18109 : 1"
       inkscape:vp_y="6.1230318e-14 : 1000 : 0"
       inkscape:vp_z="744.09448 : 526.18109 : 1"
       inkscape:persp3d-origin="372.04724 : 350.78739 : 1"
       id="perspective10" />
    <inkscape:perspective
       id="perspective3273"
       inkscape:persp3d-origin="372.04724 : 350.78739 : 1"
       inkscape:vp_z="744.09448 : 526.18109 : 1"
       inkscape:vp_y="0 : 1000 : 0"
       inkscape:vp_x="0 : 526.18109 : 1"
       sodipodi:type="inkscape:persp3d" />
    <inkscape:perspective
       id="perspective5708"
       inkscape:persp3d-origin="372.04724 : 350.78739 : 1"
       inkscape:vp_z="744.09448 : 526.18109 : 1"
       inkscape:vp_y="0 : 1000 : 0"
       inkscape:vp_x="0 : 526.18109 : 1"
       sodipodi:type="inkscape:persp3d" />
  </defs>
  <sodipodi:namedview
     id="base"
     pagecolor="#ffffff"
     bordercolor="#666666"
     borderopacity="1.0"
     gridtolerance="10000"
     guidetolerance="10"
     objecttolerance="10"
     inkscape:pageopacity="0.0"
     inkscape:pageshadow="2"
     inkscape:zoom="0.8253308"
     inkscape:cx="407.10949"
     inkscape:cy="515.67202"
     inkscape:document-units="px"
     inkscape:current-layer="layer1"
     showgrid="false"
     inkscape:snap-global="true"
     inkscape:window-width="1279"
     inkscape:window-height="948"
     inkscape:window-x="0"
     inkscape:window-y="25">
    <inkscape:grid
       type="xygrid"
       id="grid5632" />
  </sodipodi:namedview>
  <metadata
     id="metadata7">
    <rdf:RDF>
      <cc:Work
         rdf:about="">
        <dc:format>image/svg+xml</dc:format>
        <dc:type
           rdf:resource="http://purl.org/dc/dcmitype/StillImage" />
      </cc:Work>
    </rdf:RDF>
  </metadata>
  <g
     inkscape:label="Layer 1"
     inkscape:groupmode="layer"
     id="layer1">
    <g
       id="g6723"
       transform="translate(26.655979,13.32799)">
      <g
         style="stroke:#ffffff;stroke-width:2;stroke-miterlimit:4;stroke-dasharray:none;stroke-opacity:1"
         id="g6615">
        <path
           style="opacity:1;fill:#0069ff;fill-opacity:1;stroke:#ffffff;stroke-width:2;stroke-linecap:butt;stroke-linejoin:round;marker-start:none;stroke-miterlimit:4;stroke-dasharray:none;stroke-opacity:1"
           d="M 285,392.36216 L 340,412.36218 C 340,414.06771 205,494.06771 205,492.36218 C 205,492.36218 284.7665,392.36216 285,392.36216 z"
           id="path5658"
           sodipodi:nodetypes="cccc" />
        <path
           style="opacity:1;fill:#0069ff;fill-opacity:1;stroke:#ffffff;stroke-width:2;stroke-linecap:butt;stroke-linejoin:round;marker-start:none;stroke-miterlimit:4;stroke-dasharray:none;stroke-opacity:1"
           d="M 125,392.36216 L 285,392.36216 C 285,394.06769 205,494.06771 205,492.36218 C 205,492.36218 124.7665,392.36216 125,392.36216 z"
           id="path5656"
           sodipodi:nodetypes="cccc" />
        <path
           style="opacity:1;fill:#0069ff;fill-opacity:1;stroke:#ffffff;stroke-width:2;stroke-linecap:butt;stroke-linejoin:round;marker-start:none;stroke-miterlimit:4;stroke-dasharray:none;stroke-opacity:1"
           d="M 75.000043,412.36218 L 205,492.36218 C 205,494.06771 125,394.06769 125,392.36216 C 125,392.36216 74.766523,412.36218 75.000043,412.36218 z"
           id="path5654"
           sodipodi:nodetypes="cccc" />
        <path
           style="opacity:1;fill:#0069ff;fill-opacity:1;stroke:#ffffff;stroke-width:2;stroke-linecap:butt;stroke-linejoin:round;marker-start:none;stroke-miterlimit:4;stroke-dasharray:none;stroke-opacity:1"
           d="M 285,392.36216 L 340,262.36218 C 340,264.06771 340,414.06771 340,412.36218 C 340,412.36218 284.7665,392.36216 285,392.36216 z"
           id="path5648"
           sodipodi:nodetypes="cccc" />
        <path
           style="opacity:1;fill:#0069ff;fill-opacity:1;stroke:#ffffff;stroke-width:2;stroke-linecap:butt;stroke-linejoin:round;marker-start:none;stroke-miterlimit:4;stroke-dasharray:none;stroke-opacity:1"
           d="M 125,392.36216 L 75.000043,262.36216 C 75.000043,264.06769 75.000043,414.06771 75.000043,412.36218 C 75.000043,412.36218 124.7665,392.36216 125,392.36216 z"
           id="path5650"
           sodipodi:nodetypes="cccc" />
        <path
           style="opacity:1;fill:#0069ff;fill-opacity:1;stroke:#ffffff;stroke-width:2;stroke-linecap:butt;stroke-linejoin:round;marker-start:none;stroke-miterlimit:4;stroke-dasharray:none;stroke-opacity:1"
           d="M 205,252.36217 L 340,262.36218 C 340,264.06771 285,394.06769 285,392.36216 C 285,392.36216 204.7665,252.36217 205,252.36217 z"
           id="path5636"
           sodipodi:nodetypes="cccc" />
        <path
           style="opacity:1;fill:#0069ff;fill-opacity:1;stroke:#ffffff;stroke-width:2;stroke-linecap:butt;stroke-linejoin:round;marker-start:none;stroke-miterlimit:4;stroke-dasharray:none;stroke-opacity:1"
           d="M 125,392.36216 L 205,252.36217 C 205,254.0677 285,394.06769 285,392.36216 C 285,392.36216 124.7665,392.36216 125,392.36216 z"
           id="path5652"
           sodipodi:nodetypes="cccc" />
        <path
           style="opacity:1;fill:#0069ff;fill-opacity:1;stroke:#ffffff;stroke-width:2;stroke-linecap:butt;stroke-linejoin:round;marker-start:none;stroke-miterlimit:4;stroke-dasharray:none;stroke-opacity:1"
           d="M 75.000043,262.36216 L 205,252.36217 C 205,254.0677 125,394.06769 125,392.36216 C 125,392.36216 74.766523,262.36216 75.000043,262.36216 z"
           id="path5634"
           sodipodi:nodetypes="cccc" />
        <path
           style="opacity:1;fill:#0069ff;fill-opacity:1;stroke:#ffffff;stroke-width:2;stroke-linecap:butt;stroke-linejoin:round;marker-start:none;stroke-miterlimit:4;stroke-dasharray:none;stroke-opacity:1"
           d="M 205,172.36218 L 340,262.36218 L 205,252.36216 C 205,252.36216 204.7665,172.36218 205,172.36218 z"
           id="path3283"
           sodipodi:nodetypes="cccc" />
        <path
           style="opacity:1;fill:#0069ff;fill-opacity:1;stroke:#ffffff;stroke-width:2;stroke-linecap:butt;stroke-linejoin:round;marker-start:none;stroke-miterlimit:4;stroke-dasharray:none;stroke-opacity:1"
           d="M 205,172.36218 L 205,252.36216 L 75.000043,262.36215 C 75.000043,262.36215 204.7665,172.36218 205,172.36218 z"
           id="path3285"
           sodipodi:nodetypes="cccc" />
      </g>
      <g
         id="g6603">
        <path
           style="opacity:0.84051723;fill:#3c87f4;fill-opacity:1;stroke:none;stroke-width:1;stroke-linecap:butt;stroke-linejoin:round;marker-start:none;stroke-miterlimit:4;stroke-dasharray:none;stroke-opacity:1"
           d="M 205,172.36223 L 295,272.36219 C 295,274.06772 115,274.06772 115,272.36219 C 115,272.36219 204.7665,172.36223 205,172.36223 z"
           id="path3287"
           sodipodi:nodetypes="cccc" />
        <path
           style="opacity:0.84051723;fill:#0e68e6;fill-opacity:1;stroke:none;stroke-width:1;stroke-linecap:butt;stroke-linejoin:round;marker-start:none;stroke-miterlimit:4;stroke-dasharray:none;stroke-opacity:1"
           d="M 205,172.36222 L 340,262.36218 C 340,264.06771 295,274.06771 295,272.36218 C 295,272.36218 204.7665,172.36222 205,172.36222 z"
           id="path3281"
           sodipodi:nodetypes="cccc" />
        <path
           style="opacity:0.84051723;fill:#79b2ff;fill-opacity:1;stroke:none;stroke-width:1;stroke-linecap:butt;stroke-linejoin:round;marker-start:none;stroke-miterlimit:4;stroke-dasharray:none;stroke-opacity:1"
           d="M 205,172.36222 L 115,272.36218 C 115,274.06771 75.000043,264.06771 75.000043,262.36218 C 75.000043,262.36218 204.7665,172.36222 205,172.36222 z"
           id="path3205"
           sodipodi:nodetypes="cccc" />
        <path
           style="opacity:0.84051723;fill:#3585f3;fill-opacity:1;stroke:none;stroke-width:1;stroke-linecap:butt;stroke-linejoin:round;marker-start:none;stroke-miterlimit:4;stroke-dasharray:none;stroke-opacity:1"
           d="M 75.000043,262.36219 L 115,272.36219 C 115,274.06772 75.000043,414.06771 75.000043,412.36218 C 75.000043,412.36218 74.766523,262.36219 75.000043,262.36219 z"
           id="path5638"
           sodipodi:nodetypes="cccc" />
        <path
           style="opacity:0.84051723;fill:#0c61da;fill-opacity:1;stroke:none;stroke-width:1;stroke-linecap:butt;stroke-linejoin:round;marker-start:none;stroke-miterlimit:4;stroke-dasharray:none;stroke-opacity:1"
           d="M 115,272.36219 L 205,422.36219 C 205,424.06772 75.000043,414.06771 75.000043,412.36218 C 75.000043,412.36218 114.7665,272.36219 115,272.36219 z"
           id="path5640"
           sodipodi:nodetypes="cccc" />
        <path
           style="opacity:0.84051723;fill:#0d65e3;fill-opacity:1;stroke:none;stroke-width:1;stroke-linecap:butt;stroke-linejoin:round;marker-start:none;stroke-miterlimit:4;stroke-dasharray:none;stroke-opacity:1"
           d="M 115,272.36219 L 295,272.36219 C 295,274.06772 205,424.06772 205,422.36219 C 205,422.36219 114.7665,272.36219 115,272.36219 z"
           id="path5642"
           sodipodi:nodetypes="cccc" />
        <path
           style="opacity:0.84051723;fill:#0b56c1;fill-opacity:1;stroke:none;stroke-width:1;stroke-linecap:butt;stroke-linejoin:round;marker-start:none;stroke-miterlimit:4;stroke-dasharray:none;stroke-opacity:1"
           d="M 205,422.36219 L 295,272.36219 C 295,274.06772 340,414.06771 340,412.36218 C 340,412.36218 204.7665,422.36219 205,422.36219 z"
           id="path5644"
           sodipodi:nodetypes="cccc" />
        <path
           style="opacity:0.84051723;fill:#0c5bcc;fill-opacity:1;stroke:none;stroke-width:1;stroke-linecap:butt;stroke-linejoin:round;marker-start:none;stroke-miterlimit:4;stroke-dasharray:none;stroke-opacity:1"
           d="M 295,272.36219 L 340,262.36218 C 340,264.06771 340,414.06771 340,412.36218 C 340,412.36218 294.7665,272.36219 295,272.36219 z"
           id="path5646"
           sodipodi:nodetypes="cccc" />
        <path
           style="opacity:0.84051723;fill:#0a51b6;fill-opacity:1;stroke:none;stroke-width:1;stroke-linecap:butt;stroke-linejoin:round;marker-start:none;stroke-miterlimit:4;stroke-dasharray:none;stroke-opacity:1"
           d="M 205,422.36219 L 340,412.36218 C 340,414.06771 205,494.06771 205,492.36218 C 205,492.36218 204.7665,422.36219 205,422.36219 z"
           id="path5660"
           sodipodi:nodetypes="cccc" />
        <path
           style="opacity:0.84051723;fill:#0a58c5;fill-opacity:1;stroke:none;stroke-width:1;stroke-linecap:butt;stroke-linejoin:round;marker-start:none;stroke-miterlimit:4;stroke-dasharray:none;stroke-opacity:1"
           d="M 205,422.36219 L 75.000043,412.36218 C 75.000043,414.06771 205,494.06771 205,492.36218 C 205,492.36218 204.7665,422.36219 205,422.36219 z"
           id="path5662"
           sodipodi:nodetypes="cccc" />
      </g>
    </g>
    <g
       id="g6699"
       transform="translate(-24.232708,2.4232706)">
      <g
         style="stroke:#ffffff;stroke-width:2;stroke-miterlimit:4;stroke-dasharray:none;stroke-opacity:1"
         id="g6639">
        <path
           style="opacity:1;fill:#ff0000;fill-opacity:1;stroke:#ffffff;stroke-width:2;stroke-linecap:butt;stroke-linejoin:round;marker-start:none;stroke-miterlimit:4;stroke-dasharray:none;stroke-opacity:1"
           d="M 620,402.36211 L 675,422.36213 C 675,424.06766 540,504.06766 540,502.36213 C 540,502.36213 619.7665,402.36211 620,402.36211 z"
           id="path6523"
           sodipodi:nodetypes="cccc" />
        <path
           style="opacity:1;fill:#ff0000;fill-opacity:1;stroke:#ffffff;stroke-width:2;stroke-linecap:butt;stroke-linejoin:round;marker-start:none;stroke-miterlimit:4;stroke-dasharray:none;stroke-opacity:1"
           d="M 460,402.36211 L 620,402.36211 C 620,404.06764 540,504.06766 540,502.36213 C 540,502.36213 459.7665,402.36211 460,402.36211 z"
           id="path6525"
           sodipodi:nodetypes="cccc" />
        <path
           style="opacity:1;fill:#ff0000;fill-opacity:1;stroke:#ffffff;stroke-width:2;stroke-linecap:butt;stroke-linejoin:round;marker-start:none;stroke-miterlimit:4;stroke-dasharray:none;stroke-opacity:1"
           d="M 410,422.36213 L 540,502.36213 C 540,504.06766 460,404.06764 460,402.36211 C 460,402.36211 409.7665,422.36213 410,422.36213 z"
           id="path6527"
           sodipodi:nodetypes="cccc" />
        <path
           style="opacity:1;fill:#ff0000;fill-opacity:1;stroke:#ffffff;stroke-width:2;stroke-linecap:butt;stroke-linejoin:round;marker-start:none;stroke-miterlimit:4;stroke-dasharray:none;stroke-opacity:1"
           d="M 620,402.36211 L 675,272.36213 C 675,274.06766 675,424.06766 675,422.36213 C 675,422.36213 619.7665,402.36211 620,402.36211 z"
           id="path6529"
           sodipodi:nodetypes="cccc" />
        <path
           style="opacity:1;fill:#ff0000;fill-opacity:1;stroke:#ffffff;stroke-width:2;stroke-linecap:butt;stroke-linejoin:round;marker-start:none;stroke-miterlimit:4;stroke-dasharray:none;stroke-opacity:1"
           d="M 460,402.36211 L 410,272.36211 C 410,274.06764 410,424.06766 410,422.36213 C 410,422.36213 459.7665,402.36211 460,402.36211 z"
           id="path6531"
           sodipodi:nodetypes="cccc" />
        <path
           style="opacity:1;fill:#ff0000;fill-opacity:1;stroke:#ffffff;stroke-width:2;stroke-linecap:butt;stroke-linejoin:round;marker-start:none;stroke-miterlimit:4;stroke-dasharray:none;stroke-opacity:1"
           d="M 540,262.36212 L 675,272.36213 C 675,274.06766 620,404.06764 620,402.36211 C 620,402.36211 539.7665,262.36212 540,262.36212 z"
           id="path6533"
           sodipodi:nodetypes="cccc" />
        <path
           style="opacity:1;fill:#ff0000;fill-opacity:1;stroke:#ffffff;stroke-width:2;stroke-linecap:butt;stroke-linejoin:round;marker-start:none;stroke-miterlimit:4;stroke-dasharray:none;stroke-opacity:1"
           d="M 460,402.36211 L 540,262.36212 C 540,264.06765 620,404.06764 620,402.36211 C 620,402.36211 459.7665,402.36211 460,402.36211 z"
           id="path6535"
           sodipodi:nodetypes="cccc" />
        <path
           style="opacity:1;fill:#ff0000;fill-opacity:1;stroke:#ffffff;stroke-width:2;stroke-linecap:butt;stroke-linejoin:round;marker-start:none;stroke-miterlimit:4;stroke-dasharray:none;stroke-opacity:1"
           d="M 410,272.36211 L 540,262.36212 C 540,264.06765 460,404.06764 460,402.36211 C 460,402.36211 409.7665,272.36211 410,272.36211 z"
           id="path6537"
           sodipodi:nodetypes="cccc" />
        <path
           style="opacity:1;fill:#ff0000;fill-opacity:1;stroke:#ffffff;stroke-width:2;stroke-linecap:butt;stroke-linejoin:round;marker-start:none;stroke-miterlimit:4;stroke-dasharray:none;stroke-opacity:1"
           d="M 540,182.36213 L 675,272.36213 L 540,262.36211 C 540,262.36211 539.7665,182.36213 540,182.36213 z"
           id="path6539"
           sodipodi:nodetypes="cccc" />
        <path
           style="opacity:1;fill:#ff0000;fill-opacity:1;stroke:#ffffff;stroke-width:2;stroke-linecap:butt;stroke-linejoin:round;marker-start:none;stroke-miterlimit:4;stroke-dasharray:none;stroke-opacity:1"
           d="M 540,182.36213 L 540,262.36211 L 410,272.3621 C 410,272.3621 539.7665,182.36213 540,182.36213 z"
           id="path6541"
           sodipodi:nodetypes="cccc" />
      </g>
      <g
         id="g6627">
        <path
           style="opacity:0.6853448;fill:#ff3131;fill-opacity:1;stroke:none;stroke-width:1;stroke-linecap:butt;stroke-linejoin:round;marker-start:none;stroke-miterlimit:4;stroke-dasharray:none;stroke-opacity:1"
           d="M 540,182.36218 L 630,282.36214 C 630,284.06767 450,284.06767 450,282.36214 C 450,282.36214 539.7665,182.36218 540,182.36218 z"
           id="path6543"
           sodipodi:nodetypes="cccc" />
        <path
           style="opacity:0.6853448;fill:#f40000;fill-opacity:1;stroke:none;stroke-width:1;stroke-linecap:butt;stroke-linejoin:round;marker-start:none;stroke-miterlimit:4;stroke-dasharray:none;stroke-opacity:1"
           d="M 540,182.36217 L 675,272.36213 C 675,274.06766 630,284.06766 630,282.36213 C 630,282.36213 539.7665,182.36217 540,182.36217 z"
           id="path6545"
           sodipodi:nodetypes="cccc" />
        <path
           style="opacity:0.6853448;fill:#ff7979;fill-opacity:1;stroke:none;stroke-width:1;stroke-linecap:butt;stroke-linejoin:round;marker-start:none;stroke-miterlimit:4;stroke-dasharray:none;stroke-opacity:1"
           d="M 540,182.36217 L 450,282.36213 C 450,284.06766 410,274.06766 410,272.36213 C 410,272.36213 539.7665,182.36217 540,182.36217 z"
           id="path6547"
           sodipodi:nodetypes="cccc" />
        <path
           style="opacity:0.6853448;fill:#ff2929;fill-opacity:1;stroke:none;stroke-width:1;stroke-linecap:butt;stroke-linejoin:round;marker-start:none;stroke-miterlimit:4;stroke-dasharray:none;stroke-opacity:1"
           d="M 410,272.36214 L 450,282.36214 C 450,284.06767 410,424.06766 410,422.36213 C 410,422.36213 409.7665,272.36214 410,272.36214 z"
           id="path6549"
           sodipodi:nodetypes="cccc" />
        <path
           style="opacity:0.6853448;fill:#e60000;fill-opacity:1;stroke:none;stroke-width:1;stroke-linecap:butt;stroke-linejoin:round;marker-start:none;stroke-miterlimit:4;stroke-dasharray:none;stroke-opacity:1"
           d="M 450,282.36214 L 540,432.36214 C 540,434.06767 410,424.06766 410,422.36213 C 410,422.36213 449.7665,282.36214 450,282.36214 z"
           id="path6551"
           sodipodi:nodetypes="cccc" />
        <path
           style="opacity:0.6853448;fill:#f00000;fill-opacity:1;stroke:none;stroke-width:1;stroke-linecap:butt;stroke-linejoin:round;marker-start:none;stroke-miterlimit:4;stroke-dasharray:none;stroke-opacity:1"
           d="M 450,282.36218 L 630,282.36218 C 630,284.06771 540,434.06771 540,432.36218 C 540,432.36218 449.7665,282.36218 450,282.36218 z"
           id="path6553"
           sodipodi:nodetypes="cccc" />
        <path
           style="opacity:0.6853448;fill:#cc0000;fill-opacity:1;stroke:none;stroke-width:1;stroke-linecap:butt;stroke-linejoin:round;marker-start:none;stroke-miterlimit:4;stroke-dasharray:none;stroke-opacity:1"
           d="M 540,432.36214 L 630,282.36214 C 630,284.06767 675,424.06766 675,422.36213 C 675,422.36213 539.7665,432.36214 540,432.36214 z"
           id="path6555"
           sodipodi:nodetypes="cccc" />
        <path
           style="opacity:0.6853448;fill:#d80000;fill-opacity:1;stroke:none;stroke-width:1;stroke-linecap:butt;stroke-linejoin:round;marker-start:none;stroke-miterlimit:4;stroke-dasharray:none;stroke-opacity:1"
           d="M 630,282.36214 L 675,272.36213 C 675,274.06766 675,424.06766 675,422.36213 C 675,422.36213 629.7665,282.36214 630,282.36214 z"
           id="path6557"
           sodipodi:nodetypes="cccc" />
        <path
           style="opacity:0.6853448;fill:#c00000;fill-opacity:1;stroke:none;stroke-width:1;stroke-linecap:butt;stroke-linejoin:round;marker-start:none;stroke-miterlimit:4;stroke-dasharray:none;stroke-opacity:1"
           d="M 540,432.36214 L 675,422.36213 C 675,424.06766 540,504.06766 540,502.36213 C 540,502.36213 539.7665,432.36214 540,432.36214 z"
           id="path6559"
           sodipodi:nodetypes="cccc" />
        <path
           style="opacity:0.6853448;fill:#d20000;fill-opacity:1;stroke:none;stroke-width:1;stroke-linecap:butt;stroke-linejoin:round;marker-start:none;stroke-miterlimit:4;stroke-dasharray:none;stroke-opacity:1"
           d="M 540,432.36214 L 410,422.36213 C 410,424.06766 540,504.06766 540,502.36213 C 540,502.36213 539.7665,432.36214 540,432.36214 z"
           id="path6561"
           sodipodi:nodetypes="cccc" />
      </g>
    </g>
    <g
       id="g6675"
       transform="translate(1.2116352,-52.100322)">
      <g
         style="stroke:#ffffff;stroke-width:2;stroke-miterlimit:4;stroke-dasharray:none;stroke-opacity:1"
         id="g6663">
        <path
           style="opacity:1;fill:#00f01d;fill-opacity:1;stroke:#ffffff;stroke-width:2;stroke-linecap:butt;stroke-linejoin:round;marker-start:none;stroke-miterlimit:4;stroke-dasharray:none;stroke-opacity:1"
           d="M 445,762.36216 L 500,782.36218 C 500,784.06771 365,864.06771 365,862.36218 C 365,862.36218 444.7665,762.36216 445,762.36216 z"
           id="path6563"
           sodipodi:nodetypes="cccc" />
        <path
           style="opacity:1;fill:#00f01d;fill-opacity:1;stroke:#ffffff;stroke-width:2;stroke-linecap:butt;stroke-linejoin:round;marker-start:none;stroke-miterlimit:4;stroke-dasharray:none;stroke-opacity:1"
           d="M 285,762.36216 L 445,762.36216 C 445,764.06769 365,864.06771 365,862.36218 C 365,862.36218 284.7665,762.36216 285,762.36216 z"
           id="path6565"
           sodipodi:nodetypes="cccc" />
        <path
           style="opacity:1;fill:#00f01d;fill-opacity:1;stroke:#ffffff;stroke-width:2;stroke-linecap:butt;stroke-linejoin:round;marker-start:none;stroke-miterlimit:4;stroke-dasharray:none;stroke-opacity:1"
           d="M 235,782.36218 L 365,862.36218 C 365,864.06771 285,764.06769 285,762.36216 C 285,762.36216 234.7665,782.36218 235,782.36218 z"
           id="path6567"
           sodipodi:nodetypes="cccc" />
        <path
           style="opacity:1;fill:#00f01d;fill-opacity:1;stroke:#ffffff;stroke-width:2;stroke-linecap:butt;stroke-linejoin:round;marker-start:none;stroke-miterlimit:4;stroke-dasharray:none;stroke-opacity:1"
           d="M 445,762.36216 L 500,632.36218 C 500,634.06771 500,784.06771 500,782.36218 C 500,782.36218 444.7665,762.36216 445,762.36216 z"
           id="path6569"
           sodipodi:nodetypes="cccc" />
        <path
           style="opacity:1;fill:#00f01d;fill-opacity:1;stroke:#ffffff;stroke-width:2;stroke-linecap:butt;stroke-linejoin:round;marker-start:none;stroke-miterlimit:4;stroke-dasharray:none;stroke-opacity:1"
           d="M 285,762.36216 L 235,632.36216 C 235,634.06769 235,784.06771 235,782.36218 C 235,782.36218 284.7665,762.36216 285,762.36216 z"
           id="path6571"
           sodipodi:nodetypes="cccc" />
        <path
           style="opacity:1;fill:#00f01d;fill-opacity:1;stroke:#ffffff;stroke-width:2;stroke-linecap:butt;stroke-linejoin:round;marker-start:none;stroke-miterlimit:4;stroke-dasharray:none;stroke-opacity:1"
           d="M 365,622.36217 L 500,632.36218 C 500,634.06771 445,764.06769 445,762.36216 C 445,762.36216 364.7665,622.36217 365,622.36217 z"
           id="path6573"
           sodipodi:nodetypes="cccc" />
        <path
           style="opacity:1;fill:#00f01d;fill-opacity:1;stroke:#ffffff;stroke-width:2;stroke-linecap:butt;stroke-linejoin:round;marker-start:none;stroke-miterlimit:4;stroke-dasharray:none;stroke-opacity:1"
           d="M 285,762.36216 L 365,622.36217 C 365,624.0677 445,764.06769 445,762.36216 C 445,762.36216 284.7665,762.36216 285,762.36216 z"
           id="path6575"
           sodipodi:nodetypes="cccc" />
        <path
           style="opacity:1;fill:#00f01d;fill-opacity:1;stroke:#ffffff;stroke-width:2;stroke-linecap:butt;stroke-linejoin:round;marker-start:none;stroke-miterlimit:4;stroke-dasharray:none;stroke-opacity:1"
           d="M 235,632.36216 L 365,622.36217 C 365,624.0677 285,764.06769 285,762.36216 C 285,762.36216 234.7665,632.36216 235,632.36216 z"
           id="path6577"
           sodipodi:nodetypes="cccc" />
        <path
           style="opacity:1;fill:#00f01d;fill-opacity:1;stroke:#ffffff;stroke-width:2;stroke-linecap:butt;stroke-linejoin:round;marker-start:none;stroke-miterlimit:4;stroke-dasharray:none;stroke-opacity:1"
           d="M 365,542.36218 L 500,632.36218 L 365,622.36216 C 365,622.36216 364.7665,542.36218 365,542.36218 z"
           id="path6579"
           sodipodi:nodetypes="cccc" />
        <path
           style="opacity:1;fill:#00f01d;fill-opacity:1;stroke:#ffffff;stroke-width:2;stroke-linecap:butt;stroke-linejoin:round;marker-start:none;stroke-miterlimit:4;stroke-dasharray:none;stroke-opacity:1"
           d="M 365,542.36218 L 365,622.36216 L 235,632.36215 C 235,632.36215 364.7665,542.36218 365,542.36218 z"
           id="path6581"
           sodipodi:nodetypes="cccc" />
      </g>
      <g
         id="g6651">
        <path
           style="opacity:0.68500001;fill:#31ff49;fill-opacity:1;stroke:none;stroke-width:1;stroke-linecap:butt;stroke-linejoin:round;marker-start:none;stroke-miterlimit:4;stroke-dasharray:none;stroke-opacity:1"
           d="M 365,542.36222 L 455,642.36219 C 455,644.06772 275,644.06772 275,642.36219 C 275,642.36219 364.7665,542.36222 365,542.36222 z"
           id="path6583"
           sodipodi:nodetypes="cccc" />
        <path
           style="opacity:0.68500001;fill:#00f41c;fill-opacity:1;stroke:none;stroke-width:1;stroke-linecap:butt;stroke-linejoin:round;marker-start:none;stroke-miterlimit:4;stroke-dasharray:none;stroke-opacity:1"
           d="M 365,542.36221 L 500,632.36218 C 500,634.06771 455,644.06771 455,642.36218 C 455,642.36218 364.7665,542.36221 365,542.36221 z"
           id="path6585"
           sodipodi:nodetypes="cccc" />
        <path
           style="opacity:0.68500001;fill:#79ff89;fill-opacity:1;stroke:none;stroke-width:1;stroke-linecap:butt;stroke-linejoin:round;marker-start:none;stroke-miterlimit:4;stroke-dasharray:none;stroke-opacity:1"
           d="M 365,542.36221 L 275,642.36218 C 275,644.06771 235,634.06771 235,632.36218 C 235,632.36218 364.7665,542.36221 365,542.36221 z"
           id="path6587"
           sodipodi:nodetypes="cccc" />
        <path
           style="opacity:0.68500001;fill:#29ff42;fill-opacity:1;stroke:none;stroke-width:1;stroke-linecap:butt;stroke-linejoin:round;marker-start:none;stroke-miterlimit:4;stroke-dasharray:none;stroke-opacity:1"
           d="M 235,632.36219 L 275,642.36219 C 275,644.06772 235,784.06771 235,782.36218 C 235,782.36218 234.7665,632.36219 235,632.36219 z"
           id="path6589"
           sodipodi:nodetypes="cccc" />
        <path
           style="opacity:0.68500001;fill:#00e61a;fill-opacity:1;stroke:none;stroke-width:1;stroke-linecap:butt;stroke-linejoin:round;marker-start:none;stroke-miterlimit:4;stroke-dasharray:none;stroke-opacity:1"
           d="M 275,642.36219 L 365,792.36219 C 365,794.06772 235,784.06771 235,782.36218 C 235,782.36218 274.7665,642.36219 275,642.36219 z"
           id="path6591"
           sodipodi:nodetypes="cccc" />
        <path
           style="opacity:0.68500001;fill:#00f019;fill-opacity:1;stroke:none;stroke-width:1;stroke-linecap:butt;stroke-linejoin:round;marker-start:none;stroke-miterlimit:4;stroke-dasharray:none;stroke-opacity:1"
           d="M 275,642.36219 L 455,642.36219 C 455,644.06772 365,794.06772 365,792.36219 C 365,792.36219 274.7665,642.36219 275,642.36219 z"
           id="path6593"
           sodipodi:nodetypes="cccc" />
        <path
           style="opacity:0.68500001;fill:#00cc18;fill-opacity:1;stroke:none;stroke-width:1;stroke-linecap:butt;stroke-linejoin:round;marker-start:none;stroke-miterlimit:4;stroke-dasharray:none;stroke-opacity:1"
           d="M 365,792.36219 L 455,642.36219 C 455,644.06772 500,784.06771 500,782.36218 C 500,782.36218 364.7665,792.36219 365,792.36219 z"
           id="path6595"
           sodipodi:nodetypes="cccc" />
        <path
           style="opacity:0.68500001;fill:#00d818;fill-opacity:1;stroke:none;stroke-width:1;stroke-linecap:butt;stroke-linejoin:round;marker-start:none;stroke-miterlimit:4;stroke-dasharray:none;stroke-opacity:1"
           d="M 455,642.36219 L 500,632.36218 C 500,634.06771 500,784.06771 500,782.36218 C 500,782.36218 454.7665,642.36219 455,642.36219 z"
           id="path6597"
           sodipodi:nodetypes="cccc" />
        <path
           style="opacity:0.68500001;fill:#00c017;fill-opacity:1;stroke:none;stroke-width:1;stroke-linecap:butt;stroke-linejoin:round;marker-start:none;stroke-miterlimit:4;stroke-dasharray:none;stroke-opacity:1"
           d="M 365,792.36219 L 500,782.36218 C 500,784.06771 365,864.06771 365,862.36218 C 365,862.36218 364.7665,792.36219 365,792.36219 z"
           id="path6599"
           sodipodi:nodetypes="cccc" />
        <path
           style="opacity:0.68500001;fill:#00d219;fill-opacity:1;stroke:none;stroke-width:1;stroke-linecap:butt;stroke-linejoin:round;marker-start:none;stroke-miterlimit:4;stroke-dasharray:none;stroke-opacity:1"
           d="M 365,792.36219 L 235,782.36218 C 235,784.06771 365,864.06771 365,862.36218 C 365,862.36218 364.7665,792.36219 365,792.36219 z"
           id="path6601"
           sodipodi:nodetypes="cccc" />
      </g>
    </g>
  </g>
</svg>
